<svg width="151" height="351" viewBox="0 0 151 351" fill="none" xmlns="http://www.w3.org/2000/svg">
<rect x="150.262" y="0.499756" width="350" height="150" transform="rotate(90 150.262 0.499756)" fill="#E5EEF1"/>
<rect x="150.262" y="89.6741" width="240" height="150" transform="rotate(90 150.262 89.6741)" fill="#B1CFE6"/>
<path d="M56.595 262.426C56.595 263.216 56.595 264.006 56.595 264.82C53.3545 266.301 50.1115 267.776 46.8613 269.235C44.9076 270.125 42.9616 271.034 41.0464 272.004C32.0192 276.438 23.9872 274.372 14.6453 272.004C9.89895 271.609 5.15264 271.214 0.262507 270.807C0.262508 249.867 0.262509 228.927 0.26251 207.352C13.4467 202.563 13.4467 202.563 17.0424 202.563C16.6237 201.741 16.205 200.918 15.7736 200.071C14.9555 198.452 14.9555 198.452 14.1209 196.802C13.3074 195.197 13.3074 195.197 12.4776 193.561C11.0496 190.591 11.0496 190.591 9.85101 186.999C14.2874 187.431 17.5932 188.332 21.3872 190.591C27.5441 194.235 33.058 194.476 40.1147 194.856C41.4543 194.934 41.4543 194.934 42.8209 195.013C45.0149 195.139 47.2092 195.26 49.4036 195.38C48.8474 196.454 48.8474 196.454 48.2799 197.55C46.8841 200.276 46.8841 200.276 45.8079 203.761C43.4576 205.21 43.4576 205.21 40.5642 206.604C36.0005 208.988 33.5177 210.856 31.4251 215.733C32.7106 215.61 33.9961 215.486 35.3205 215.359C39.8151 215.733 39.8151 215.733 42.8115 218.352C44.6093 221.719 44.6093 221.719 44.3097 225.087C44.0131 225.951 43.7164 226.815 43.4108 227.706C41.4331 227.706 39.4555 227.706 37.418 227.706C37.1213 226.767 36.8247 225.829 36.519 224.862C34.8112 221.28 33.849 220.682 30.2266 219.325C29.4355 218.93 28.6445 218.535 27.8295 218.128C27.7971 220.846 27.7739 223.565 27.7545 226.284C27.7337 228.555 27.7337 228.555 27.7124 230.872C27.6358 234.884 27.6358 234.884 29.028 238.481C32.5781 237.136 33.6774 236.351 35.5452 232.944C36.1632 232.005 36.7812 231.067 37.418 230.1C40.6391 229.726 40.6391 229.726 43.4108 230.1C44.3097 232.719 44.3097 232.719 44.6093 236.086C42.7366 239.379 42.7366 239.379 39.8151 242.073C35.9198 243.045 35.9198 243.045 32.6237 243.27C36.5491 248.792 36.5491 248.792 42.4369 251.725C43.5494 252.096 44.6618 252.466 45.8079 252.848C46.1787 253.811 46.5495 254.774 46.9316 255.766C48.4267 259.368 49.0917 259.556 52.5498 261.004C53.8847 261.473 55.2196 261.942 56.595 262.426Z" fill="#AFACB8"/>
<path d="M128.874 237.227C123.448 247.703 113.95 251.404 103.339 255.242C99.6649 256.34 96.4009 256.58 92.5706 256.556C91.4505 256.553 90.3304 256.549 89.1763 256.545C87.4358 256.53 87.4358 256.53 85.6602 256.514C84.4813 256.509 83.3025 256.504 82.0879 256.498C79.1835 256.484 76.2792 256.464 73.3749 256.44C74.113 252.577 75.0596 249.113 76.4462 245.44C80.4061 232.443 79.4458 217.516 74.5735 204.958C74.1519 203.367 73.7456 201.772 73.3749 200.169C86.7595 199.448 97.0177 200.184 109.332 206.155C110.282 206.583 111.232 207.01 112.211 207.45C124.417 213.149 133.927 223.05 128.874 237.227Z" fill="#69597C"/>
<path d="M75.7717 250.453C70.6299 250.453 65.488 250.453 60.1904 250.453C60.9814 251.638 61.7725 252.824 62.5875 254.045C62.199 258.023 61.8591 259.562 58.9918 262.426C54.416 263.035 52.3324 262.749 48.3546 260.331C45.8076 257.637 45.8076 257.637 45.8076 252.848C44.7694 252.848 43.7311 252.848 42.6614 252.848C36.7633 251.102 34.6512 247.09 31.4249 242.072C32.7351 241.974 34.0452 241.875 35.3951 241.773C39.7681 241.275 39.7681 241.275 42.137 238.78C43.6109 235.662 43.6948 233.508 43.4105 230.1C40.5671 230.145 40.5671 230.145 37.4177 231.297C35.7753 233.662 34.1735 236.055 32.6234 238.481C31.4369 238.481 30.2503 238.481 29.0277 238.481C26.2397 234.303 26.34 232.555 26.4059 227.631C26.4175 225.721 26.4175 225.721 26.4293 223.772C26.6306 220.522 26.6306 220.522 27.8292 218.127C31.8585 219.852 34.531 222.016 37.4177 225.311C37.4177 226.101 37.4177 226.891 37.4177 227.705C39.3953 227.705 41.3729 227.705 43.4105 227.705C43.711 224.863 43.711 224.863 43.4105 221.719C41.6876 219.698 41.6876 219.698 39.8148 218.127C39.8148 217.337 39.8148 216.547 39.8148 215.733C37.0461 215.733 34.2775 215.733 31.4249 215.733C31.8103 212.139 32.6013 210.965 35.2453 208.4C38.6163 206.155 38.6163 206.155 42.5116 204.958C43.5993 204.563 44.687 204.167 45.8076 203.76C46.6244 201.495 46.6244 201.495 47.0062 198.971C48.9539 196.278 48.9539 196.278 51.8004 194.182C56.1452 193.733 56.1452 193.733 60.1904 194.182C60.9814 194.973 61.7725 195.763 62.5875 196.577C62.1527 199.965 61.2727 202.911 60.1904 206.155C61.6852 206.051 61.6852 206.051 63.2102 205.944C64.5127 205.89 65.8151 205.836 67.157 205.781C68.4502 205.711 69.7434 205.642 71.0758 205.57C74.5731 206.155 74.5731 206.155 76.7596 208.872C82.1625 221.405 80.5926 238.013 75.7717 250.453Z" fill="#EAE6F1"/>
<path d="M56.595 262.426C56.595 263.216 56.595 264.006 56.595 264.82C53.3545 266.301 50.1115 267.776 46.8613 269.235C44.9076 270.125 42.9616 271.034 41.0464 272.004C33.0835 275.915 25.6559 274.988 17.3561 272.616C11.7588 271.351 5.97791 271.168 0.262509 270.806C0.262509 267.251 0.262509 263.695 0.26251 260.031C5.67543 259.94 10.5592 259.909 15.8438 261.228C16.2394 259.648 16.6349 258.068 17.0424 256.439C15.8064 256.316 14.5704 256.193 13.2969 256.065C8.71137 255.253 5.4958 253.911 1.46107 251.65C1.46107 246.514 1.46107 241.378 1.46107 236.086C10.4841 237.889 10.4841 237.889 12.618 240.122C19.4705 246.714 30.5764 249.841 39.787 251.262C42.2122 251.65 42.2122 251.65 45.8079 252.848C46.1045 253.786 46.4012 254.724 46.7068 255.691C48.4082 259.26 49.0552 259.539 52.5498 261.004C53.8847 261.473 55.2196 261.942 56.595 262.426Z" fill="#594A6B"/>
<path d="M49.4036 195.38C49.0328 196.096 48.662 196.812 48.2799 197.55C46.8841 200.276 46.8841 200.276 45.8079 203.761C41.8857 206.245 39.0744 207.32 34.4215 207.652C29.1554 208.113 24.7757 210.33 20.1137 212.665C19.3613 213.04 18.6088 213.414 17.8336 213.8C13.7092 215.78 13.7092 215.78 11.0496 219.325C7.57061 220.971 5.34273 221.719 1.46105 221.719C1.46105 216.978 1.46105 212.237 1.46105 207.352C12.9972 202.563 12.9972 202.563 17.0424 202.563C16.6237 201.741 16.205 200.918 15.7736 200.071C14.9555 198.452 14.9555 198.452 14.1209 196.802C13.3074 195.197 13.3074 195.197 12.4775 193.561C11.0496 190.591 11.0496 190.591 9.85099 186.999C14.2874 187.431 17.5931 188.332 21.3872 190.591C27.5441 194.235 33.058 194.476 40.1147 194.856C41.4542 194.934 41.4542 194.934 42.8208 195.013C45.0148 195.139 47.2092 195.26 49.4036 195.38Z" fill="#5B4E6E"/>
<path d="M49.4036 267.215C46.7371 269.879 45.0919 270.392 41.538 271.48C37.9663 272.402 37.9663 272.402 35.0208 274.398C28.829 274.98 23.3372 274.325 17.3561 272.617C11.7588 271.352 5.97789 271.168 0.262487 270.807C0.262487 267.251 0.262487 263.695 0.262487 260.031C5.67541 259.94 10.5592 259.909 15.8438 261.229C16.2393 260.439 16.6349 259.648 17.0424 258.834C17.0424 260.02 17.0424 261.205 17.0424 262.426C17.852 262.485 18.6616 262.543 19.4957 262.604C21.0994 262.738 21.0994 262.738 22.7355 262.875C23.7923 262.958 24.8491 263.042 25.938 263.127C29.028 263.623 29.028 263.623 31.3128 264.82C34.8224 266.495 38.048 266.534 41.9125 266.766C43.3154 266.856 44.7183 266.945 46.1637 267.037C47.2329 267.096 48.302 267.155 49.4036 267.215Z" fill="#736386"/>
<path d="M27.8293 248.059C27.0383 248.454 26.2472 248.849 25.4322 249.256C25.4322 250.046 25.4322 250.836 25.4322 251.65C24.0232 251.799 24.0232 251.799 22.5856 251.95C19.2567 252.503 19.2567 252.503 18.0442 255.298C17.7136 256.07 17.3829 256.842 17.0423 257.637C15.3428 257.093 13.6452 256.543 11.9484 255.99C10.5301 255.532 10.5301 255.532 9.08307 255.064C6.25521 254.045 6.25521 254.045 1.46096 251.65C1.46096 246.514 1.46096 241.378 1.46096 236.086C10.4834 237.889 10.4834 237.889 12.646 240.15C15.2957 242.698 18.0998 243.828 21.462 245.29C22.6532 245.813 23.8444 246.336 25.0717 246.875C25.9817 247.266 26.8918 247.656 27.8293 248.059Z" fill="#695B7C"/>
<path d="M29.0281 207.352C26.72 211.963 20.2912 213.229 15.7315 215.209C12.1375 216.549 12.1375 216.549 11.0496 219.325C7.57068 220.971 5.34281 221.719 1.46113 221.719C1.46113 216.978 1.46113 212.237 1.46113 207.352C12.9973 202.563 12.9973 202.563 17.0424 202.563C17.438 201.773 17.8335 200.983 18.241 200.169C18.9085 200.909 19.5759 201.65 20.2636 202.414C23.1149 205.031 25.3887 206.14 29.0281 207.352Z" fill="#685B7C"/>
<path d="M94.9487 256.44C94.9487 256.835 94.9487 257.23 94.9487 257.637C94.1388 257.667 93.3288 257.697 92.4943 257.728C88.8176 257.867 85.1413 258.014 81.4649 258.161C80.1903 258.208 78.9156 258.255 77.6023 258.303C76.374 258.353 75.1458 258.404 73.8802 258.455C72.7504 258.499 71.6206 258.543 70.4566 258.588C67.0595 258.775 67.0595 258.775 62.5875 260.031C61.7965 256.871 61.0054 253.71 60.1904 250.453C64.9367 250.453 69.683 250.453 74.5732 250.453C74.1776 252.429 73.7821 254.404 73.3746 256.44C80.4941 256.44 87.6135 256.44 94.9487 256.44Z" fill="#B0ADC6"/>
<path d="M90.1545 198.972C90.1545 199.367 90.1545 199.762 90.1545 200.169C84.6172 200.169 79.0798 200.169 73.3747 200.169C74.1657 202.539 74.9568 204.91 75.7718 207.352C70.6299 206.957 65.4881 206.562 60.1905 206.155C61.389 201.366 61.389 201.366 63.7862 198.972C66.4788 198.7 66.4788 198.7 69.7883 198.738C70.9703 198.746 72.1522 198.753 73.37 198.761C74.6075 198.781 75.8451 198.801 77.1202 198.822C78.367 198.833 79.6138 198.844 80.8985 198.855C83.9841 198.883 87.0692 198.922 90.1545 198.972Z" fill="#B2B1C0"/>
<path d="M44.3097 225.087C43.8647 226.383 43.8647 226.383 43.4108 227.706C41.4332 227.706 39.4555 227.706 37.418 227.706C36.973 226.298 36.973 226.298 36.519 224.862C34.8364 221.332 33.8142 220.639 30.2266 219.325C30.2266 217.349 30.2266 215.374 30.2266 213.339C30.6221 214.129 31.0176 214.919 31.4252 215.733C33.3533 215.548 33.3533 215.548 35.3205 215.359C39.8151 215.733 39.8151 215.733 42.8115 218.352C44.6093 221.719 44.6093 221.719 44.3097 225.087Z" fill="#B8B5BE"/>
<path d="M17.0422 256.44C16.6467 258.02 16.2512 259.6 15.8437 261.229C10.7018 260.834 5.56 260.438 0.262354 260.031C0.262354 257.266 0.262354 254.5 0.262355 251.651C6.07165 252.587 11.5008 254.522 17.0422 256.44Z" fill="#BDB8C4"/>
<path d="M44.3099 234.739C43.274 237.671 41.7814 239.682 39.8152 242.073C38.8141 241.813 38.8141 241.813 37.7927 241.549C34.8845 240.842 31.9658 240.249 29.0282 239.678C29.9675 238.764 30.9069 237.851 31.8748 236.909C35.108 233.801 35.108 233.801 37.4181 230.1C40.5643 229.876 40.5643 229.876 43.4109 230.1C44.6095 232.495 44.6095 232.495 44.3099 234.739Z" fill="#B8B3BE"/>
<path d="M74.5732 250.453C73.98 253.417 73.98 253.417 73.3747 256.44C72.7814 255.254 72.7814 255.254 72.1761 254.045C69.803 254.045 67.4298 254.045 64.9847 254.045C64.9847 253.255 64.9847 252.465 64.9847 251.651C63.4026 252.046 61.8205 252.441 60.1905 252.848C60.1905 252.058 60.1905 251.267 60.1905 250.453C64.9368 250.453 69.6831 250.453 74.5732 250.453Z" fill="#BBB5C5"/>
<path d="M69.7791 255.242C69.7791 256.033 69.7791 256.823 69.7791 257.637C67.4059 258.427 65.0327 259.217 62.5877 260.031C62.1921 257.266 61.7966 254.5 61.3891 251.651C62.5757 251.651 63.7623 251.651 64.9848 251.651C65.3803 252.441 65.7759 253.231 66.1834 254.045C67.3699 254.44 68.5565 254.835 69.7791 255.242Z" fill="#918C9F"/>
<path d="M56.595 262.426C56.595 263.216 56.595 264.006 56.595 264.82C54.2218 265.611 51.8487 266.401 49.4036 267.215C49.7991 265.635 50.1946 264.054 50.6022 262.426C49.4156 262.031 48.229 261.636 47.0065 261.229C47.402 260.439 47.7975 259.648 48.205 258.834C50.9737 260.02 53.7424 261.205 56.595 262.426Z" fill="#70627E"/>
<path d="M31.102 110.276C28.8087 110.276 26.7554 110.089 24.942 109.716C23.1554 109.369 21.622 108.782 20.342 107.956C19.0887 107.156 18.1287 106.102 17.462 104.796C16.7954 103.489 16.462 101.876 16.462 99.9557C16.462 97.5824 17.0487 95.6224 18.222 94.0757C19.3954 92.5557 21.0754 91.4357 23.262 90.7157C25.4487 89.9957 28.062 89.6357 31.102 89.6357C34.1954 89.6357 36.8354 89.9557 39.022 90.5957C41.2087 91.2624 42.8887 92.3557 44.062 93.8757C45.2354 95.3957 45.822 97.4224 45.822 99.9557C45.822 102.329 45.2354 104.276 44.062 105.796C42.9154 107.316 41.2354 108.436 39.022 109.156C36.8354 109.902 34.1954 110.276 31.102 110.276ZM31.102 97.3157C29.2354 97.3157 27.6754 97.3824 26.422 97.5157C25.1687 97.6757 24.222 97.9424 23.582 98.3157C22.942 98.6891 22.622 99.2357 22.622 99.9557C22.622 100.676 22.9287 101.222 23.542 101.596C24.182 101.969 25.1287 102.222 26.382 102.356C27.662 102.516 29.2354 102.596 31.102 102.596C32.9954 102.596 34.5687 102.516 35.822 102.356C37.102 102.222 38.062 101.969 38.702 101.596C39.342 101.222 39.662 100.676 39.662 99.9557C39.662 99.2357 39.342 98.6891 38.702 98.3157C38.062 97.9424 37.102 97.6757 35.822 97.5157C34.5687 97.3824 32.9954 97.3157 31.102 97.3157Z" fill="#576FA3"/>
<path d="M31.102 86.8382C28.8087 86.8382 26.7554 86.6516 24.942 86.2782C23.1554 85.9316 21.622 85.3449 20.342 84.5182C19.0887 83.7182 18.1287 82.6649 17.462 81.3582C16.7954 80.0516 16.462 78.4382 16.462 76.5182C16.462 74.1449 17.0487 72.1849 18.222 70.6382C19.3954 69.1182 21.0754 67.9982 23.262 67.2782C25.4487 66.5582 28.062 66.1982 31.102 66.1982C34.1954 66.1982 36.8354 66.5182 39.022 67.1582C41.2087 67.8249 42.8887 68.9182 44.062 70.4382C45.2354 71.9582 45.822 73.9849 45.822 76.5182C45.822 78.8916 45.2354 80.8382 44.062 82.3582C42.9154 83.8782 41.2354 84.9982 39.022 85.7182C36.8354 86.4649 34.1954 86.8382 31.102 86.8382ZM31.102 73.8782C29.2354 73.8782 27.6754 73.9449 26.422 74.0782C25.1687 74.2382 24.222 74.5049 23.582 74.8782C22.942 75.2516 22.622 75.7982 22.622 76.5182C22.622 77.2382 22.9287 77.7849 23.542 78.1582C24.182 78.5316 25.1287 78.7849 26.382 78.9182C27.662 79.0782 29.2354 79.1582 31.102 79.1582C32.9954 79.1582 34.5687 79.0782 35.822 78.9182C37.102 78.7849 38.062 78.5316 38.702 78.1582C39.342 77.7849 39.662 77.2382 39.662 76.5182C39.662 75.7982 39.342 75.2516 38.702 74.8782C38.062 74.5049 37.102 74.2382 35.822 74.0782C34.5687 73.9449 32.9954 73.8782 31.102 73.8782Z" fill="#576FA3"/>
<path d="M31.102 63.4007C28.8087 63.4007 26.7554 63.2141 24.942 62.8407C23.1554 62.4941 21.622 61.9074 20.342 61.0807C19.0887 60.2807 18.1287 59.2274 17.462 57.9207C16.7954 56.6141 16.462 55.0007 16.462 53.0807C16.462 50.7074 17.0487 48.7474 18.222 47.2007C19.3954 45.6807 21.0754 44.5607 23.262 43.8407C25.4487 43.1207 28.062 42.7607 31.102 42.7607C34.1954 42.7607 36.8354 43.0807 39.022 43.7207C41.2087 44.3874 42.8887 45.4807 44.062 47.0007C45.2354 48.5207 45.822 50.5474 45.822 53.0807C45.822 55.4541 45.2354 57.4007 44.062 58.9207C42.9154 60.4407 41.2354 61.5607 39.022 62.2807C36.8354 63.0274 34.1954 63.4007 31.102 63.4007ZM31.102 50.4407C29.2354 50.4407 27.6754 50.5074 26.422 50.6407C25.1687 50.8007 24.222 51.0674 23.582 51.4407C22.942 51.8141 22.622 52.3607 22.622 53.0807C22.622 53.8007 22.9287 54.3474 23.542 54.7207C24.182 55.0941 25.1287 55.3474 26.382 55.4807C27.662 55.6407 29.2354 55.7207 31.102 55.7207C32.9954 55.7207 34.5687 55.6407 35.822 55.4807C37.102 55.3474 38.062 55.0941 38.702 54.7207C39.342 54.3474 39.662 53.8007 39.662 53.0807C39.662 52.3607 39.342 51.8141 38.702 51.4407C38.062 51.0674 37.102 50.8007 35.822 50.6407C34.5687 50.5074 32.9954 50.4407 31.102 50.4407Z" fill="#576FA3"/>
<path d="M16.8621 36.3232L16.8621 28.4832L30.9821 28.4832C31.2488 28.4832 31.7288 28.4832 32.4221 28.4832C33.1155 28.4832 33.8888 28.4966 34.7421 28.5232C35.5955 28.5499 36.3555 28.5766 37.0221 28.6032C36.6221 28.2566 36.2755 27.9366 35.9821 27.6432C35.6888 27.3766 35.4221 27.0966 35.1821 26.8032L32.5021 23.5632L37.4221 19.5632L45.4221 29.3632L45.4221 36.3232L16.8621 36.3232Z" fill="#576FA3"/>
<circle cx="116.827" cy="125.534" r="14.4097" transform="rotate(90 116.827 125.534)" fill="#E5EEF1"/>
<rect x="92.6614" y="314.204" width="6" height="6" transform="rotate(90 92.6614 314.204)" fill="#576FA3"/>
<rect x="78.2625" y="314.204" width="6" height="6" transform="rotate(90 78.2625 314.204)" fill="#576FA3"/>
<rect x="63.8635" y="314.204" width="6" height="6" transform="rotate(90 63.8635 314.204)" fill="#576FA3"/>
</svg>
