<svg width="151" height="351" viewBox="0 0 151 351" fill="none" xmlns="http://www.w3.org/2000/svg">
<rect x="150.227" y="0.112061" width="350" height="150" transform="rotate(90 150.227 0.112061)" fill="#E7EADB"/>
<rect x="150.227" y="89.2864" width="240" height="150" transform="rotate(90 150.227 89.2864)" fill="#9EC08A"/>
<path d="M76.3034 232.109C76.3227 233.198 76.3421 234.287 76.362 235.409C76.3672 242.568 75.5473 248.023 72.3231 254.464C68.9601 257.115 66.009 257.138 61.8091 257.015C60.8487 256.993 59.8884 256.971 58.8989 256.949C58.174 256.921 57.4491 256.893 56.7022 256.865C56.7022 257.657 56.7022 258.449 56.7022 259.265C58.6849 259.661 60.6675 260.057 62.7103 260.465C62.3137 262.05 61.9172 263.634 61.5087 265.267C53.9284 265.703 53.9284 265.703 50.2436 263.766C48.291 261.666 48.291 261.666 47.9155 259.265C47.6429 258.473 47.3703 257.681 47.0894 256.865C43.4928 255.057 43.4928 255.057 40.8655 254.15C38.6782 253.264 38.6782 253.264 35.8244 251.013C31.9612 249.359 31.0403 249.932 27.1879 251.313C26.2942 251.694 25.4005 252.075 24.4796 252.467C21.3742 253.41 20.0285 253.309 17.0494 252.063C15.0452 250.319 15.0452 250.319 13.2193 248.163C12.6075 247.463 11.9957 246.764 11.3653 246.043C9.58684 243.266 9.10245 240.901 8.63821 237.66C15.5566 238.967 22.3274 240.413 29.0654 242.461C29.2389 241.595 29.4124 240.728 29.5911 239.836C30.0198 237.694 30.5135 235.564 31.0931 233.459C31.5518 229.794 30.6608 227.738 29.0654 224.457C28.3823 224.616 27.6993 224.776 26.9955 224.94C21.2893 226.243 15.6462 227.317 9.83981 228.058C10.0499 222.811 10.7346 219.394 14.2707 215.53C17.102 212.986 18.1023 212.478 22.006 211.854C25.4606 212.454 25.4606 212.454 27.9389 213.729C31.2799 215.344 32.7259 214.757 36.275 213.654C43.7826 211.309 43.7826 211.309 48.6665 205.702C48.9392 204.762 49.2118 203.821 49.4926 202.852C53.5294 199.715 57.7758 200.262 62.7103 200.451C63.5033 202.036 64.2964 203.62 65.1135 205.252C63.1308 206.045 61.1482 206.837 59.1055 207.653C59.8443 207.698 60.5831 207.743 61.3444 207.789C62.3156 207.868 63.2867 207.947 64.2874 208.028C65.2492 208.098 66.2111 208.167 67.2022 208.239C70.529 208.991 71.5244 209.706 73.5247 212.454C76.4768 218.865 76.3277 225.191 76.3034 232.109Z" fill="#E8EFD4"/>
<path d="M131.201 226.858C130.751 229.708 130.751 229.708 130 232.859C130.272 233.874 130.545 234.889 130.826 235.935C131.201 238.861 131.201 238.861 129.624 241.336C125.708 244.156 121.735 245.592 117.228 247.258C114.188 248.37 114.188 248.37 111.525 250.938C107.215 254.117 102.872 254.77 97.688 255.913C94.2036 256.801 91.2679 257.979 88.0189 259.49C80.9267 262.53 73.9005 262.094 66.315 261.666C66.8215 260.855 67.328 260.044 67.8498 259.209C68.5081 258.138 69.1664 257.068 69.8447 255.965C70.4999 254.906 71.1551 253.848 71.8301 252.758C75.3921 246.252 74.9866 239.735 75.0266 232.484C75.0637 230.819 75.0637 230.819 75.1017 229.12C75.1565 219.478 72.7143 213.412 67.5166 205.253C74.4005 204.925 79.5273 205.338 85.9536 207.756C89.2315 208.883 92.5347 209.709 95.9029 210.519C102.619 212.152 108.202 213.72 113.558 218.264C116.984 220.622 120.905 221.371 124.912 222.329C127.893 223.359 129.308 224.352 131.201 226.858Z" fill="#285B3E"/>
<path d="M29.0656 242.461C21.9607 241.69 15.4366 239.832 8.63844 237.66C12.1608 245.371 15.1798 250.693 23.0576 254.464C11.9025 282.698 11.9025 282.698 0.227227 290.473C0.227228 253.24 0.22723 216.007 0.227232 177.646C5.38568 181.768 8.36545 185.115 11.7175 190.549C12.186 191.293 12.6545 192.038 13.1371 192.805C21.856 206.818 21.856 206.818 21.856 211.254C20.3484 212.581 18.7864 213.847 17.1998 215.08C12.3586 219.147 10.8499 221.879 9.84004 228.058C10.5231 227.798 11.2062 227.538 11.91 227.27C17.722 225.177 22.8181 223.458 29.0657 224.457C34.6144 230.519 31.9805 235.667 29.0656 242.461Z" fill="#295C3F"/>
<path d="M23.0579 253.264C18.053 267.377 12.2254 279.837 1.42904 290.473C1.03251 290.473 0.635983 290.473 0.227439 290.473C0.227441 253.24 0.227442 216.007 0.227444 177.646C0.623972 177.646 1.0205 177.646 1.42904 177.646C1.82557 197.054 2.2221 216.463 2.63064 236.46C4.21676 236.856 5.80287 237.252 7.43705 237.66C9.35679 240.014 9.35679 240.014 11.1169 242.911C14.794 249.285 14.794 249.285 20.88 252.889C21.5987 253.012 22.3174 253.136 23.0579 253.264Z" fill="#26573C"/>
<path d="M29.0657 242.461C21.9607 241.69 15.4366 239.832 8.63844 237.66C8.24191 238.452 7.84538 239.244 7.43684 240.061C7.43684 238.872 7.43684 237.684 7.43684 236.46C5.85072 236.46 4.26461 236.46 2.63043 236.46C2.63043 234.479 2.63043 232.499 2.63043 230.458C4.61307 230.062 6.59572 229.666 8.63844 229.258C9.03497 227.674 9.43149 226.089 9.84004 224.457C9.84004 225.645 9.84004 226.833 9.84004 228.058C10.5231 227.798 11.2062 227.538 11.91 227.27C17.722 225.177 22.8181 223.458 29.0657 224.457C34.6144 230.519 31.9805 235.667 29.0657 242.461Z" fill="#7EA57A"/>
<path d="M31.4685 217.255C31.072 219.236 30.6754 221.216 30.2669 223.257C27.5399 224.063 24.8112 224.862 22.081 225.657C20.5615 226.103 19.042 226.548 17.4764 227.007C13.4445 228.058 13.4445 228.058 9.83969 228.058C10.0498 222.811 10.7344 219.394 14.2706 215.53C17.2511 212.812 18.0905 212.472 22.3063 212.004C23.3472 212.152 24.3881 212.301 25.4605 212.454C25.4605 213.642 25.4605 214.831 25.4605 216.055C27.4431 216.451 29.4258 216.847 31.4685 217.255Z" fill="#F2F6F3"/>
<path d="M31.4685 246.062C30.2669 249.663 30.2669 249.663 26.2866 251.764C20.8966 253.589 20.8966 253.589 17.0493 252.064C15.0451 250.319 15.0451 250.319 13.2192 248.163C12.3014 247.114 12.3014 247.114 11.3652 246.043C9.58671 243.267 9.10232 240.901 8.63809 237.66C16.1994 238.976 23.2151 240.588 30.2669 243.662C30.6634 244.454 31.06 245.246 31.4685 246.062Z" fill="#EFF5EE"/>
<path d="M75.9275 262.866C75.9275 263.262 75.9275 263.658 75.9275 264.067C71.5657 264.067 67.2039 264.067 62.7099 264.067C62.7099 262.878 62.7099 261.69 62.7099 260.466C60.7272 260.07 58.7446 259.674 56.7019 259.265C56.7019 258.473 56.7019 257.681 56.7019 256.865C61.0637 256.469 65.4255 256.073 69.9195 255.665C68.7299 258.041 68.7299 258.041 67.5163 260.466C66.7232 260.466 65.9302 260.466 65.1131 260.466C65.1131 261.258 65.1131 262.05 65.1131 262.866C68.6818 262.866 72.2506 262.866 75.9275 262.866Z" fill="#84AB7C"/>
<path d="M49.4926 225.657C49.8447 229.042 49.8447 229.042 49.7179 233.009C49.6691 234.982 49.6691 234.982 49.6194 236.994C49.5775 238.006 49.5357 239.018 49.4926 240.061C48.3031 240.457 47.1135 240.853 45.8878 241.261C45.8878 235.319 45.8878 229.378 45.8878 223.257C47.0774 224.049 48.267 224.841 49.4926 225.657Z" fill="#96B391"/>
<path d="M74.7266 204.052C74.7266 204.448 74.7266 204.844 74.7266 205.252C72.7439 205.649 70.7613 206.045 68.7186 206.453C69.1151 207.245 69.5116 208.037 69.9202 208.853C65.9549 208.853 61.9896 208.853 57.9041 208.853C59.1057 206.453 59.1057 206.453 61.5841 205.102C66.1558 203.742 69.9645 203.891 74.7266 204.052Z" fill="#799E70"/>
<path d="M31.0669 133.326C28.7735 133.326 26.7202 133.139 24.9069 132.766C23.1202 132.419 21.5869 131.832 20.3069 131.006C19.0535 130.206 18.0935 129.152 17.4269 127.846C16.7602 126.539 16.4269 124.926 16.4269 123.006C16.4269 120.632 17.0135 118.672 18.1869 117.126C19.3602 115.606 21.0402 114.486 23.2269 113.766C25.4135 113.046 28.0269 112.686 31.0669 112.686C34.1602 112.686 36.8002 113.006 38.9869 113.646C41.1735 114.312 42.8535 115.406 44.0269 116.926C45.2002 118.446 45.7869 120.472 45.7869 123.006C45.7869 125.379 45.2002 127.326 44.0269 128.846C42.8802 130.366 41.2002 131.486 38.9869 132.206C36.8002 132.952 34.1602 133.326 31.0669 133.326ZM31.0669 120.366C29.2002 120.366 27.6402 120.432 26.3869 120.566C25.1335 120.726 24.1869 120.992 23.5469 121.366C22.9069 121.739 22.5869 122.286 22.5869 123.006C22.5869 123.726 22.8935 124.272 23.5069 124.646C24.1469 125.019 25.0935 125.272 26.3469 125.406C27.6269 125.566 29.2002 125.646 31.0669 125.646C32.9602 125.646 34.5335 125.566 35.7869 125.406C37.0669 125.272 38.0269 125.019 38.6669 124.646C39.3069 124.272 39.6269 123.726 39.6269 123.006C39.6269 122.286 39.3069 121.739 38.6669 121.366C38.0269 120.992 37.0669 120.726 35.7869 120.566C34.5335 120.432 32.9602 120.366 31.0669 120.366Z" fill="#2B5028"/>
<path d="M31.0669 109.888C28.7735 109.888 26.7202 109.701 24.9069 109.328C23.1202 108.981 21.5869 108.395 20.3069 107.568C19.0535 106.768 18.0935 105.715 17.4269 104.408C16.7602 103.101 16.4269 101.488 16.4269 99.568C16.4269 97.1947 17.0135 95.2347 18.1869 93.688C19.3602 92.168 21.0402 91.048 23.2269 90.328C25.4135 89.608 28.0269 89.248 31.0669 89.248C34.1602 89.248 36.8002 89.568 38.9869 90.208C41.1735 90.8747 42.8535 91.968 44.0269 93.488C45.2002 95.008 45.7869 97.0347 45.7869 99.568C45.7869 101.941 45.2002 103.888 44.0269 105.408C42.8802 106.928 41.2002 108.048 38.9869 108.768C36.8002 109.515 34.1602 109.888 31.0669 109.888ZM31.0669 96.928C29.2002 96.928 27.6402 96.9947 26.3869 97.128C25.1335 97.288 24.1869 97.5547 23.5469 97.928C22.9069 98.3014 22.5869 98.848 22.5869 99.568C22.5869 100.288 22.8935 100.835 23.5069 101.208C24.1469 101.581 25.0935 101.835 26.3469 101.968C27.6269 102.128 29.2002 102.208 31.0669 102.208C32.9602 102.208 34.5335 102.128 35.7869 101.968C37.0669 101.835 38.0269 101.581 38.6669 101.208C39.3069 100.835 39.6269 100.288 39.6269 99.568C39.6269 98.848 39.3069 98.3014 38.6669 97.928C38.0269 97.5547 37.0669 97.288 35.7869 97.128C34.5335 96.9947 32.9602 96.928 31.0669 96.928Z" fill="#2B5028"/>
<path d="M31.0669 86.4505C28.7735 86.4505 26.7202 86.2639 24.9069 85.8905C23.1202 85.5439 21.5869 84.9572 20.3069 84.1305C19.0535 83.3305 18.0935 82.2772 17.4269 80.9705C16.7602 79.6639 16.4269 78.0505 16.4269 76.1305C16.4269 73.7572 17.0135 71.7972 18.1869 70.2505C19.3602 68.7305 21.0402 67.6105 23.2269 66.8905C25.4135 66.1705 28.0269 65.8105 31.0669 65.8105C34.1602 65.8105 36.8002 66.1305 38.9869 66.7705C41.1735 67.4372 42.8535 68.5305 44.0269 70.0505C45.2002 71.5705 45.7869 73.5972 45.7869 76.1305C45.7869 78.5039 45.2002 80.4505 44.0269 81.9705C42.8802 83.4905 41.2002 84.6105 38.9869 85.3305C36.8002 86.0772 34.1602 86.4505 31.0669 86.4505ZM31.0669 73.4905C29.2002 73.4905 27.6402 73.5572 26.3869 73.6905C25.1335 73.8505 24.1869 74.1172 23.5469 74.4905C22.9069 74.8639 22.5869 75.4105 22.5869 76.1305C22.5869 76.8505 22.8935 77.3972 23.5069 77.7705C24.1469 78.1439 25.0935 78.3972 26.3469 78.5305C27.6269 78.6905 29.2002 78.7705 31.0669 78.7705C32.9602 78.7705 34.5335 78.6905 35.7869 78.5305C37.0669 78.3972 38.0269 78.1439 38.6669 77.7705C39.3069 77.3972 39.6269 76.8505 39.6269 76.1305C39.6269 75.4105 39.3069 74.8639 38.6669 74.4905C38.0269 74.1172 37.0669 73.8505 35.7869 73.6905C34.5335 73.5572 32.9602 73.4905 31.0669 73.4905Z" fill="#2B5028"/>
<path d="M31.0669 63.013C28.7735 63.013 26.7202 62.8264 24.9069 62.453C23.1202 62.1064 21.5869 61.5197 20.3069 60.693C19.0535 59.893 18.0935 58.8397 17.4269 57.533C16.7602 56.2264 16.4269 54.613 16.4269 52.693C16.4269 50.3197 17.0135 48.3597 18.1869 46.813C19.3602 45.293 21.0402 44.173 23.2269 43.453C25.4135 42.733 28.0269 42.373 31.0669 42.373C34.1602 42.373 36.8002 42.693 38.9869 43.333C41.1735 43.9997 42.8535 45.093 44.0269 46.613C45.2002 48.133 45.7869 50.1597 45.7869 52.693C45.7869 55.0664 45.2002 57.013 44.0269 58.533C42.8802 60.053 41.2002 61.173 38.9869 61.893C36.8002 62.6397 34.1602 63.013 31.0669 63.013ZM31.0669 50.053C29.2002 50.053 27.6402 50.1197 26.3869 50.253C25.1335 50.413 24.1869 50.6797 23.5469 51.053C22.9069 51.4264 22.5869 51.973 22.5869 52.693C22.5869 53.413 22.8935 53.9597 23.5069 54.333C24.1469 54.7064 25.0935 54.9597 26.3469 55.093C27.6269 55.253 29.2002 55.333 31.0669 55.333C32.9602 55.333 34.5335 55.253 35.7869 55.093C37.0669 54.9597 38.0269 54.7064 38.6669 54.333C39.3069 53.9597 39.6269 53.413 39.6269 52.693C39.6269 51.973 39.3069 51.4264 38.6669 51.053C38.0269 50.6797 37.0669 50.413 35.7869 50.253C34.5335 50.1197 32.9602 50.053 31.0669 50.053Z" fill="#2B5028"/>
<path d="M16.827 35.9355L16.827 28.0955L30.947 28.0955C31.2136 28.0955 31.6936 28.0955 32.387 28.0955C33.0803 28.0955 33.8536 28.1089 34.707 28.1355C35.5603 28.1622 36.3203 28.1889 36.987 28.2155C36.587 27.8689 36.2403 27.5489 35.947 27.2555C35.6536 26.9889 35.387 26.7089 35.147 26.4155L32.467 23.1755L37.387 19.1755L45.387 28.9755L45.387 35.9355L16.827 35.9355Z" fill="#2B5028"/>
<circle cx="116.792" cy="125.147" r="14.4097" transform="rotate(90 116.792 125.147)" fill="#ECF1D8"/>
<rect x="92.6262" y="313.816" width="6" height="6" transform="rotate(90 92.6262 313.816)" fill="#2B5028"/>
<rect x="78.2273" y="313.816" width="6" height="6" transform="rotate(90 78.2273 313.816)" fill="#2B5028"/>
<rect x="63.8284" y="313.816" width="6" height="6" transform="rotate(90 63.8284 313.816)" fill="#2B5028"/>
</svg>
