<svg width="123" height="352" viewBox="0 0 123 352" fill="none" xmlns="http://www.w3.org/2000/svg">
<circle cx="61.5" cy="47.8843" r="47.8843" fill="#C8C8C8"/>
<circle cx="61.5" cy="47.8843" r="42.9092" fill="#D5D5D5"/>
<path d="M94.9149 49.6443C94.9149 51.9377 94.7282 53.991 94.3549 55.8043C94.0082 57.591 93.4216 59.1243 92.5949 60.4043C91.7949 61.6577 90.7416 62.6177 89.4349 63.2843C88.1282 63.951 86.5149 64.2843 84.5949 64.2843C82.2216 64.2843 80.2616 63.6977 78.7149 62.5243C77.1949 61.351 76.0749 59.671 75.3549 57.4843C74.6349 55.2976 74.2749 52.6843 74.2749 49.6443C74.2749 46.551 74.5949 43.911 75.2349 41.7243C75.9016 39.5377 76.9949 37.8576 78.5149 36.6843C80.0349 35.511 82.0616 34.9243 84.5949 34.9243C86.9682 34.9243 88.9149 35.511 90.4349 36.6843C91.9549 37.831 93.0749 39.511 93.7949 41.7243C94.5416 43.911 94.9149 46.551 94.9149 49.6443ZM81.9549 49.6443C81.9549 51.511 82.0216 53.071 82.1549 54.3243C82.3149 55.5777 82.5816 56.5243 82.9549 57.1643C83.3282 57.8043 83.8749 58.1243 84.5949 58.1243C85.3149 58.1243 85.8616 57.8176 86.2349 57.2043C86.6082 56.5643 86.8616 55.6176 86.9949 54.3643C87.1549 53.0843 87.2349 51.511 87.2349 49.6443C87.2349 47.751 87.1549 46.1777 86.9949 44.9243C86.8616 43.6443 86.6082 42.6843 86.2349 42.0443C85.8616 41.4043 85.3149 41.0843 84.5949 41.0843C83.8749 41.0843 83.3282 41.4043 82.9549 42.0443C82.5816 42.6843 82.3149 43.6443 82.1549 44.9243C82.0216 46.1777 81.9549 47.751 81.9549 49.6443Z" fill="#ADADAD"/>
<path d="M71.4774 49.6443C71.4774 51.9377 71.2907 53.991 70.9174 55.8043C70.5707 57.591 69.9841 59.1243 69.1574 60.4043C68.3574 61.6577 67.3041 62.6177 65.9974 63.2843C64.6907 63.951 63.0774 64.2843 61.1574 64.2843C58.7841 64.2843 56.8241 63.6977 55.2774 62.5243C53.7574 61.351 52.6374 59.671 51.9174 57.4843C51.1974 55.2976 50.8374 52.6843 50.8374 49.6443C50.8374 46.551 51.1574 43.911 51.7974 41.7243C52.4641 39.5377 53.5574 37.8576 55.0774 36.6843C56.5974 35.511 58.6241 34.9243 61.1574 34.9243C63.5307 34.9243 65.4774 35.511 66.9974 36.6843C68.5174 37.831 69.6374 39.511 70.3574 41.7243C71.1041 43.911 71.4774 46.551 71.4774 49.6443ZM58.5174 49.6443C58.5174 51.511 58.5841 53.071 58.7174 54.3243C58.8774 55.5777 59.1441 56.5243 59.5174 57.1643C59.8907 57.8043 60.4374 58.1243 61.1574 58.1243C61.8774 58.1243 62.4241 57.8176 62.7974 57.2043C63.1707 56.5643 63.4241 55.6176 63.5574 54.3643C63.7174 53.0843 63.7974 51.511 63.7974 49.6443C63.7974 47.751 63.7174 46.1777 63.5574 44.9243C63.4241 43.6443 63.1707 42.6843 62.7974 42.0443C62.4241 41.4043 61.8774 41.0843 61.1574 41.0843C60.4374 41.0843 59.8907 41.4043 59.5174 42.0443C59.1441 42.6843 58.8774 43.6443 58.7174 44.9243C58.5841 46.1777 58.5174 47.751 58.5174 49.6443Z" fill="#ADADAD"/>
<path d="M44.3999 63.8842H36.5599V49.7642C36.5599 49.4976 36.5599 49.0176 36.5599 48.3242C36.5599 47.6309 36.5732 46.8576 36.5999 46.0042C36.6266 45.1509 36.6532 44.3909 36.6799 43.7242C36.3332 44.1242 36.0132 44.4709 35.7199 44.7642C35.4532 45.0576 35.1732 45.3242 34.8799 45.5642L31.6399 48.2442L27.6399 43.3242L37.4399 35.3242H44.3999V63.8842Z" fill="#ADADAD"/>
</svg>
