<svg width="151" height="351" viewBox="0 0 151 351" fill="none" xmlns="http://www.w3.org/2000/svg">
<rect x="150.377" y="0.724365" width="350" height="150" transform="rotate(90 150.377 0.724365)" fill="#F2E6E5"/>
<rect x="150.377" y="89.8987" width="240" height="150" transform="rotate(90 150.377 89.8987)" fill="#D6A995"/>
<path d="M131.351 233.683C130.187 235.116 129.011 236.541 127.832 237.962C126.852 239.154 126.852 239.154 125.852 240.369C125.243 240.987 124.634 241.605 124.006 242.242C123.199 242.242 122.391 242.242 121.558 242.242C121.028 243.603 121.028 243.603 120.487 244.993C119.11 248.355 119.11 248.355 117.814 250.657C116.497 253.617 116.373 255.679 116.433 258.901C116.444 260.324 116.444 260.324 116.457 261.777C116.515 264.335 116.515 264.335 117.886 266.696C109.697 266.036 102.421 264.389 94.6291 261.805C94.6291 263.823 94.6291 265.84 94.6291 267.919C91.129 266.494 89.7197 265.455 87.4377 262.34C81.2586 257.526 74.1016 258.25 66.4757 258.137C66.4757 257.33 66.4757 256.523 66.4757 255.692C67.8138 255.364 69.1518 255.036 70.5304 254.698C75.4769 253.185 75.4769 253.185 78.7163 249.578C82.4902 238.773 81.0845 223.053 76.2682 212.896C72.3664 210.298 69.8234 209.837 65.2517 209.228C65.6556 208.421 66.0595 207.614 66.4757 206.783C69.5964 206.401 72.6004 206.156 75.7327 206.019C76.6029 205.971 77.4731 205.924 78.3697 205.875C80.5248 205.76 82.6806 205.659 84.8366 205.56C85.19 204.61 85.5435 203.659 85.9077 202.68C87.4551 199.046 89.1754 197.089 92.181 194.556C92.9888 194.556 93.7967 194.556 94.6291 194.556C94.2251 197.784 93.8212 201.012 93.405 204.337C94.235 204.161 95.065 203.984 95.9201 203.802C103.764 202.24 111.12 201.58 119.11 201.892C118.722 202.567 118.334 203.241 117.934 203.936C116.507 207.131 116.172 209.724 115.897 213.202C115.806 214.293 115.714 215.384 115.62 216.507C115.53 217.746 115.53 217.746 115.438 219.01C116.246 219.01 117.054 219.01 117.886 219.01C119.517 220.978 119.517 220.978 121.329 223.595C124.278 227.677 127.199 230.755 131.351 233.683Z" fill="#7E6E75"/>
<path d="M81.4706 234.523C81.48 235.419 81.4895 236.315 81.4993 237.238C81.4744 244.131 80.8202 248.699 75.8858 253.628C72.3169 255.867 70.5971 256.162 66.4759 255.691C66.5516 256.851 66.6273 258.012 66.7054 259.207C66.6296 260.468 66.5539 261.729 66.4759 263.028C62.2055 265.871 60.4814 265.985 55.4593 265.473C52.5522 264.021 52.5522 264.021 50.5631 261.805C50.2571 258.519 50.2571 258.519 50.5631 255.691C49.6716 255.758 48.7801 255.824 47.8616 255.892C43.8712 255.658 42.0155 254.671 38.705 252.482C37.7662 251.886 36.8273 251.29 35.86 250.676C31.5871 246.601 31.0774 242.236 30.61 236.505C30.6053 234.943 30.6005 233.381 30.5956 231.772C30.5751 230.207 30.5546 228.642 30.5335 227.029C31.0069 222.397 31.8024 220.201 34.6503 216.564C36.9789 214.673 36.9789 214.673 39.4701 213.202C40.289 212.704 41.1079 212.206 41.9517 211.693C44.4428 210.451 44.4428 210.451 47.0726 209.935C47.8205 209.702 48.5685 209.468 49.339 209.228C51.4575 205.004 51.4575 205.004 53.0112 200.669C54.9562 198.726 56.987 199.239 59.667 199.217C60.6501 199.2 61.6331 199.182 62.6459 199.165C65.2518 199.446 65.2518 199.446 67.6999 201.892C67.2409 205.101 67.2409 205.101 66.4759 208.005C67.5867 208.333 68.6975 208.661 69.842 208.999C76.0492 211.264 76.0492 211.264 78.7164 214.119C80.8405 221.053 81.5481 227.301 81.4706 234.523Z" fill="#EBE0E0"/>
<path d="M40.7705 211.674C39.3315 213.036 39.3315 213.036 37.8634 214.425C31.3433 221.248 31.6875 227.413 31.8817 236.544C32.2624 241.861 33.0867 245.08 35.8743 249.578C36.6821 249.981 37.49 250.385 38.3224 250.801C38.3224 251.608 38.3224 252.415 38.3224 253.246C33.0185 252.458 28.6931 250.569 23.8632 248.279C22.4415 247.609 21.0198 246.939 19.5551 246.249C18.4774 245.734 17.3997 245.218 16.2893 244.687C16.2893 243.88 16.2893 243.073 16.2893 242.242C15.1785 241.914 14.0677 241.586 12.9232 241.248C9.27558 239.917 6.88133 238.74 4.04874 236.128C4.04874 235.321 4.04874 234.514 4.04874 233.683C3.24087 233.279 2.43299 232.876 1.60063 232.46C2.40851 232.46 3.21638 232.46 4.04874 232.46C4.32961 231.738 4.61047 231.016 4.89985 230.272C10.0844 221.496 25.4115 215.283 34.6502 211.674C38.1407 211.478 38.1407 211.478 40.7705 211.674Z" fill="#635257"/>
<path d="M23.634 255.691C19.6631 268.978 13.0958 280.563 4.04909 291.15C2.23137 291.755 2.23137 291.755 0.376917 292.373C0.376918 276.233 0.376919 260.093 0.376919 243.464C4.3594 244.459 6.42702 245.171 9.76774 247.213C10.9867 247.952 10.9867 247.952 12.2302 248.706C13.0649 249.221 13.8996 249.735 14.7596 250.265C15.6132 250.785 16.4669 251.304 17.3464 251.839C19.4457 253.118 21.5404 254.404 23.634 255.691Z" fill="#675459"/>
<path d="M21.1858 211.673C18.3791 214.046 15.289 215.78 12.0819 217.558C10.8074 218.304 10.8074 218.304 9.50708 219.065C3.22715 222.678 3.22715 222.678 0.376847 222.678C0.376847 207.345 0.376848 192.012 0.376849 176.215C10.3798 181.211 16.5523 193.108 21.5779 202.804C22.6942 206.502 22.7286 208.091 21.1858 211.673Z" fill="#68555C"/>
<path d="M29.7541 252.023C29.7541 252.83 29.7541 253.637 29.7541 254.469C25.3382 255.614 23.034 255.945 18.7472 254.206C17.5827 253.511 16.4182 252.816 15.2185 252.1C14.035 251.408 12.8516 250.716 11.6323 250.003C10.7456 249.459 9.8588 248.915 8.94515 248.355C9.75303 247.145 10.5609 245.934 11.3933 244.687C10.1815 242.266 10.1815 242.266 8.94515 239.796C11.3688 240.603 13.7924 241.41 16.2895 242.242C16.2895 243.049 16.2895 243.856 16.2895 244.687C17.4256 245.04 18.5617 245.393 19.7322 245.757C23.6339 247.132 23.6339 247.132 27.306 249.578C27.306 250.385 27.306 251.192 27.306 252.023C28.1139 252.023 28.9218 252.023 29.7541 252.023Z" fill="#F0ECEB"/>
<path d="M48.1155 236.128C47.2514 241.882 47.2514 241.882 45.6674 243.464C43.6279 243.514 41.5865 243.516 39.5471 243.464C38.1653 239.415 36.8382 235.407 35.8749 231.237C37.8946 230.833 39.9143 230.43 41.9952 230.014C41.9952 232.032 41.9952 234.049 41.9952 236.128C43.1691 235.787 43.1691 235.787 44.3668 235.44C45.1999 235.263 46.033 235.087 46.8914 234.905C47.2954 235.309 47.6993 235.712 48.1155 236.128Z" fill="#D9CDCE"/>
<path d="M33.4263 210.451C32.0605 214.544 31.5737 214.878 27.9945 216.87C26.5555 217.576 25.1164 218.282 23.6338 219.01C22.8259 218.606 22.018 218.203 21.1857 217.787C22.8014 216.98 24.4172 216.173 26.0819 215.342C24.9085 212.492 24.9085 212.492 21.1857 210.451C25.7091 209.289 28.9029 209.289 33.4263 210.451Z" fill="#E2D5D5"/>
<path d="M78.7167 222.678C78.1866 221.543 77.6564 220.408 77.1102 219.239C74.8744 214.855 74.8744 214.855 71.3724 211.674C67.5675 210.785 67.5675 210.785 64.028 210.451C64.028 209.24 64.028 208.03 64.028 206.783C70.1116 208.213 74.1132 209.656 78.7167 214.119C79.9953 217.95 79.8603 218.997 78.7167 222.678Z" fill="#D4C7C7"/>
<path d="M131.351 233.683C130.543 234.489 129.735 235.296 128.903 236.128C127.285 234.611 125.681 233.08 124.083 231.543C123.188 230.692 122.294 229.84 121.372 228.964C119.104 226.339 118.366 224.836 117.886 221.455C118.745 222.338 119.603 223.221 120.487 224.13C123.918 227.567 127.584 230.62 131.351 233.683Z" fill="#917B81"/>
<path d="M48.1155 236.128C47.0444 242.089 47.0444 242.089 45.6674 243.464C43.6279 243.514 41.5865 243.516 39.5471 243.464C38.9412 242.254 38.9412 242.254 38.323 241.019C39.0804 240.893 39.8378 240.767 40.6181 240.637C43.6663 239.949 43.6663 239.949 45.6674 236.128C46.4752 236.128 47.2831 236.128 48.1155 236.128Z" fill="#827777"/>
<path d="M40.7705 211.673C34.9562 217.634 34.9562 217.634 32.2021 219.01C32.2021 217.799 32.2021 216.589 32.2021 215.341C31.3942 214.938 30.5863 214.534 29.754 214.119C33.5914 211.847 36.3329 211.427 40.7705 211.673Z" fill="#7D6766"/>
<path d="M48.1155 223.901C48.1155 225.918 48.1155 227.936 48.1155 230.014C47.3076 230.014 46.4997 230.014 45.6674 230.014C45.1372 228.539 45.1372 228.539 44.5963 227.034C43.5465 223.739 43.5465 223.739 40.7711 222.678C43.1948 223.081 45.6184 223.485 48.1155 223.901Z" fill="#766C6C"/>
<path d="M40.7705 230.014C40.7705 232.032 40.7705 234.049 40.7705 236.128C39.1547 235.724 37.539 235.321 35.8743 234.905C36.2782 233.291 36.6822 231.677 37.0983 230.014C38.3101 230.014 39.522 230.014 40.7705 230.014Z" fill="#786E6F"/>
<path d="M45.667 221.455C44.4552 223.271 44.4552 223.271 43.2189 225.123C39.3937 225.353 39.3937 225.353 35.8745 225.123C36.2785 223.913 36.6824 222.702 37.0986 221.455C39.9262 221.455 42.7537 221.455 45.667 221.455Z" fill="#C0B7B7"/>
<path d="M78.7161 209.228C78.1102 211.649 78.1102 211.649 77.492 214.119C76.4317 213.287 76.4317 213.287 75.3499 212.438C72.3626 210.17 72.3626 210.17 67.6995 208.005C71.335 208.409 74.9704 208.812 78.7161 209.228Z" fill="#6A5B59"/>
<path d="M31.2163 110.5C28.9229 110.5 26.8696 110.314 25.0563 109.94C23.2696 109.594 21.7363 109.007 20.4563 108.18C19.2029 107.38 18.2429 106.327 17.5763 105.02C16.9096 103.714 16.5763 102.1 16.5763 100.18C16.5763 97.807 17.1629 95.847 18.3363 94.3004C19.5096 92.7804 21.1896 91.6604 23.3763 90.9404C25.5629 90.2204 28.1763 89.8604 31.2163 89.8604C34.3096 89.8604 36.9496 90.1804 39.1363 90.8204C41.3229 91.487 43.0029 92.5803 44.1763 94.1003C45.3496 95.6203 45.9363 97.647 45.9363 100.18C45.9363 102.554 45.3496 104.5 44.1763 106.02C43.0296 107.54 41.3496 108.66 39.1363 109.38C36.9496 110.127 34.3096 110.5 31.2163 110.5ZM31.2163 97.5404C29.3496 97.5404 27.7896 97.607 26.5363 97.7403C25.2829 97.9003 24.3363 98.167 23.6963 98.5404C23.0563 98.9137 22.7363 99.4603 22.7363 100.18C22.7363 100.9 23.0429 101.447 23.6563 101.82C24.2963 102.194 25.2429 102.447 26.4963 102.58C27.7763 102.74 29.3496 102.82 31.2163 102.82C33.1096 102.82 34.6829 102.74 35.9363 102.58C37.2163 102.447 38.1763 102.194 38.8163 101.82C39.4563 101.447 39.7763 100.9 39.7763 100.18C39.7763 99.4604 39.4563 98.9137 38.8163 98.5404C38.1763 98.167 37.2163 97.9003 35.9363 97.7403C34.6829 97.607 33.1096 97.5404 31.2163 97.5404Z" fill="#9B7772"/>
<path d="M31.2163 87.0629C28.9229 87.0629 26.8696 86.8762 25.0563 86.5029C23.2696 86.1562 21.7363 85.5695 20.4563 84.7429C19.2029 83.9429 18.2429 82.8895 17.5763 81.5829C16.9096 80.2762 16.5763 78.6628 16.5763 76.7428C16.5763 74.3695 17.1629 72.4095 18.3363 70.8628C19.5096 69.3428 21.1896 68.2228 23.3763 67.5028C25.5629 66.7828 28.1763 66.4229 31.2163 66.4229C34.3096 66.4229 36.9496 66.7429 39.1363 67.3829C41.3229 68.0495 43.0029 69.1428 44.1763 70.6628C45.3496 72.1828 45.9363 74.2095 45.9363 76.7429C45.9363 79.1162 45.3496 81.0628 44.1763 82.5828C43.0296 84.1028 41.3496 85.2228 39.1363 85.9428C36.9496 86.6895 34.3096 87.0629 31.2163 87.0629ZM31.2163 74.1029C29.3496 74.1029 27.7896 74.1695 26.5363 74.3028C25.2829 74.4628 24.3363 74.7295 23.6963 75.1029C23.0563 75.4762 22.7363 76.0228 22.7363 76.7429C22.7363 77.4629 23.0429 78.0095 23.6563 78.3828C24.2963 78.7562 25.2429 79.0095 26.4963 79.1428C27.7763 79.3028 29.3496 79.3828 31.2163 79.3829C33.1096 79.3829 34.6829 79.3028 35.9363 79.1428C37.2163 79.0095 38.1763 78.7562 38.8163 78.3829C39.4563 78.0095 39.7763 77.4629 39.7763 76.7429C39.7763 76.0229 39.4563 75.4762 38.8163 75.1029C38.1763 74.7295 37.2163 74.4628 35.9363 74.3028C34.6829 74.1695 33.1096 74.1029 31.2163 74.1029Z" fill="#9B7772"/>
<path d="M31.2163 63.6254C28.9229 63.6254 26.8696 63.4387 25.0563 63.0654C23.2696 62.7187 21.7363 62.132 20.4563 61.3054C19.2029 60.5054 18.2429 59.452 17.5763 58.1454C16.9096 56.8387 16.5763 55.2254 16.5763 53.3054C16.5763 50.932 17.1629 48.972 18.3363 47.4254C19.5096 45.9054 21.1896 44.7854 23.3763 44.0654C25.5629 43.3454 28.1763 42.9854 31.2163 42.9854C34.3096 42.9854 36.9496 43.3054 39.1363 43.9454C41.3229 44.612 43.0029 45.7054 44.1763 47.2254C45.3496 48.7454 45.9363 50.772 45.9363 53.3054C45.9363 55.6787 45.3496 57.6254 44.1763 59.1454C43.0296 60.6654 41.3496 61.7854 39.1363 62.5053C36.9496 63.252 34.3096 63.6254 31.2163 63.6254ZM31.2163 50.6654C29.3496 50.6654 27.7896 50.732 26.5363 50.8653C25.2829 51.0253 24.3363 51.292 23.6963 51.6654C23.0563 52.0387 22.7363 52.5854 22.7363 53.3054C22.7363 54.0254 23.0429 54.572 23.6563 54.9454C24.2963 55.3187 25.2429 55.572 26.4963 55.7054C27.7763 55.8654 29.3496 55.9454 31.2163 55.9454C33.1096 55.9454 34.6829 55.8654 35.9363 55.7054C37.2163 55.572 38.1763 55.3187 38.8163 54.9454C39.4563 54.572 39.7763 54.0254 39.7763 53.3054C39.7763 52.5854 39.4563 52.0387 38.8163 51.6654C38.1763 51.292 37.2163 51.0254 35.9363 50.8654C34.6829 50.732 33.1096 50.6654 31.2163 50.6654Z" fill="#9B7772"/>
<path d="M35.6964 31.108C35.6964 32.708 35.3364 34.1614 34.6164 35.468C33.8964 36.7747 32.8564 37.8147 31.4964 38.588C30.1364 39.3614 28.4697 39.748 26.4964 39.748C24.363 39.748 22.5497 39.3214 21.0564 38.468C19.5897 37.6147 18.4697 36.3347 17.6964 34.628C16.9497 32.9214 16.5764 30.7614 16.5764 28.148C16.5764 26.4947 16.7097 24.988 16.9764 23.628C17.243 22.268 17.6297 21.0547 18.1364 19.988L24.4564 19.988C24.003 21.0014 23.5897 22.2147 23.2164 23.628C22.843 25.0414 22.6564 26.3347 22.6564 27.508C22.6564 28.468 22.7897 29.268 23.0564 29.908C23.323 30.5747 23.723 31.0814 24.2564 31.428C24.8164 31.7747 25.483 31.948 26.2564 31.948C27.3497 31.948 28.203 31.548 28.8164 30.748C29.4297 29.9747 29.7364 28.8014 29.7364 27.228C29.7364 26.508 29.6564 25.8014 29.4964 25.108C29.363 24.4414 29.2164 23.8414 29.0564 23.308L30.4564 20.468L45.5364 21.548L45.5364 37.828L39.0964 37.828L39.0964 28.108L35.3364 27.748C35.4164 28.1747 35.4964 28.6014 35.5764 29.028C35.6564 29.4814 35.6964 30.1747 35.6964 31.108Z" fill="#9B7772"/>
<circle cx="116.941" cy="125.759" r="14.4097" transform="rotate(90 116.941 125.759)" fill="#ECE1E0"/>
<rect x="92.7756" y="314.428" width="6" height="6" transform="rotate(90 92.7756 314.428)" fill="#6F595C"/>
<rect x="78.3767" y="314.428" width="6" height="6" transform="rotate(90 78.3767 314.428)" fill="#6F595C"/>
<rect x="63.9778" y="314.428" width="6" height="6" transform="rotate(90 63.9778 314.428)" fill="#6F595C"/>
</svg>
