<svg width="128" height="352" viewBox="0 0 128 352" fill="none" xmlns="http://www.w3.org/2000/svg">
<circle cx="64" cy="58.5386" r="58.5386" fill="#C8C8C8"/>
<circle cx="64" cy="58.5386" r="52.9229" fill="#D5D5D5"/>
<path d="M97.4149 60.2986C97.4149 62.5919 97.2282 64.6453 96.8549 66.4586C96.5082 68.2453 95.9216 69.7786 95.0949 71.0586C94.2949 72.3119 93.2416 73.2719 91.9349 73.9386C90.6282 74.6053 89.0149 74.9386 87.0949 74.9386C84.7216 74.9386 82.7616 74.3519 81.2149 73.1786C79.6949 72.0053 78.5749 70.3253 77.8549 68.1386C77.1349 65.9519 76.7749 63.3386 76.7749 60.2986C76.7749 57.2053 77.0949 54.5653 77.7349 52.3786C78.4016 50.1919 79.4949 48.5119 81.0149 47.3386C82.5349 46.1653 84.5616 45.5786 87.0949 45.5786C89.4682 45.5786 91.4149 46.1653 92.9349 47.3386C94.4549 48.4853 95.5749 50.1653 96.2949 52.3786C97.0416 54.5653 97.4149 57.2053 97.4149 60.2986ZM84.4549 60.2986C84.4549 62.1653 84.5216 63.7253 84.6549 64.9786C84.8149 66.2319 85.0816 67.1786 85.4549 67.8186C85.8282 68.4586 86.3749 68.7786 87.0949 68.7786C87.8149 68.7786 88.3616 68.4719 88.7349 67.8586C89.1082 67.2186 89.3616 66.2719 89.4949 65.0186C89.6549 63.7386 89.7349 62.1653 89.7349 60.2986C89.7349 58.4053 89.6549 56.8319 89.4949 55.5786C89.3616 54.2986 89.1082 53.3386 88.7349 52.6986C88.3616 52.0586 87.8149 51.7386 87.0949 51.7386C86.3749 51.7386 85.8282 52.0586 85.4549 52.6986C85.0816 53.3386 84.8149 54.2986 84.6549 55.5786C84.5216 56.8319 84.4549 58.4053 84.4549 60.2986Z" fill="#ADADAD"/>
<path d="M73.9774 60.2986C73.9774 62.5919 73.7907 64.6453 73.4174 66.4586C73.0707 68.2453 72.4841 69.7786 71.6574 71.0586C70.8574 72.3119 69.8041 73.2719 68.4974 73.9386C67.1907 74.6053 65.5774 74.9386 63.6574 74.9386C61.2841 74.9386 59.3241 74.3519 57.7774 73.1786C56.2574 72.0053 55.1374 70.3253 54.4174 68.1386C53.6974 65.9519 53.3374 63.3386 53.3374 60.2986C53.3374 57.2053 53.6574 54.5653 54.2974 52.3786C54.9641 50.1919 56.0574 48.5119 57.5774 47.3386C59.0974 46.1653 61.1241 45.5786 63.6574 45.5786C66.0307 45.5786 67.9774 46.1653 69.4974 47.3386C71.0174 48.4853 72.1374 50.1653 72.8574 52.3786C73.6041 54.5653 73.9774 57.2053 73.9774 60.2986ZM61.0174 60.2986C61.0174 62.1653 61.0841 63.7253 61.2174 64.9786C61.3774 66.2319 61.6441 67.1786 62.0174 67.8186C62.3907 68.4586 62.9374 68.7786 63.6574 68.7786C64.3774 68.7786 64.9241 68.4719 65.2974 67.8586C65.6707 67.2186 65.9241 66.2719 66.0574 65.0186C66.2174 63.7386 66.2974 62.1653 66.2974 60.2986C66.2974 58.4053 66.2174 56.8319 66.0574 55.5786C65.9241 54.2986 65.6707 53.3386 65.2974 52.6986C64.9241 52.0586 64.3774 51.7386 63.6574 51.7386C62.9374 51.7386 62.3907 52.0586 62.0174 52.6986C61.6441 53.3386 61.3774 54.2986 61.2174 55.5786C61.0841 56.8319 61.0174 58.4053 61.0174 60.2986Z" fill="#ADADAD"/>
<path d="M41.4601 55.8185C43.0601 55.8185 44.5134 56.1785 45.8201 56.8985C47.1268 57.6185 48.1668 58.6585 48.9401 60.0185C49.7134 61.3785 50.1001 63.0452 50.1001 65.0185C50.1001 67.1518 49.6734 68.9652 48.8201 70.4585C47.9668 71.9252 46.6868 73.0452 44.9801 73.8185C43.2734 74.5652 41.1134 74.9385 38.5001 74.9385C36.8468 74.9385 35.3401 74.8052 33.9801 74.5385C32.6201 74.2719 31.4068 73.8852 30.3401 73.3785V67.0585C31.3534 67.5119 32.5668 67.9252 33.9801 68.2985C35.3934 68.6718 36.6868 68.8585 37.8601 68.8585C38.8201 68.8585 39.6201 68.7252 40.2601 68.4585C40.9268 68.1918 41.4334 67.7919 41.7801 67.2585C42.1268 66.6985 42.3001 66.0319 42.3001 65.2585C42.3001 64.1652 41.9001 63.3118 41.1001 62.6985C40.3268 62.0852 39.1534 61.7785 37.5801 61.7785C36.8601 61.7785 36.1534 61.8585 35.4601 62.0185C34.7934 62.1518 34.1934 62.2985 33.6601 62.4585L30.8201 61.0585L31.9001 45.9785H48.1801V52.4185H38.4601L38.1001 56.1785C38.5268 56.0985 38.9534 56.0185 39.3801 55.9385C39.8334 55.8585 40.5268 55.8185 41.4601 55.8185Z" fill="#ADADAD"/>
</svg>
