<svg width="185" height="309" viewBox="0 0 185 309" fill="none" xmlns="http://www.w3.org/2000/svg">
<path d="M159.108 0.0922841C172.915 0.0922847 184.108 11.2852 184.108 25.0923L184.108 283.733C184.108 297.54 172.915 308.733 159.108 308.733L25.1565 308.733C11.3494 308.733 0.156481 297.54 0.156482 283.733L0.156493 25.0923C0.156494 11.2852 11.3494 0.0922776 25.1565 0.0922782L159.108 0.0922841Z" fill="#181818"/>
<path fill-rule="evenodd" clip-rule="evenodd" d="M180.108 283.733L180.108 25.0923C180.108 13.4943 170.706 4.09228 159.108 4.09228L25.1565 4.09228C13.5585 4.09228 4.15649 13.4943 4.15649 25.0923L4.15648 283.733C4.15648 295.331 13.5585 304.733 25.1565 304.733L159.108 304.733C170.706 304.733 180.108 295.331 180.108 283.733ZM184.108 25.0923C184.108 11.2852 172.915 0.0922847 159.108 0.0922841L25.1565 0.0922782C11.3494 0.0922776 0.156494 11.2852 0.156493 25.0923L0.156482 283.733C0.156481 297.54 11.3494 308.733 25.1565 308.733L159.108 308.733C172.915 308.733 184.108 297.54 184.108 283.733L184.108 25.0923Z" fill="#FBD15E"/>
<path d="M105.704 24.4126C109.018 24.4126 111.704 27.0989 111.704 30.4126L111.704 60.0309C111.704 63.3446 109.018 66.0309 105.704 66.0309L90.1013 66.0309C86.7876 66.0309 84.1013 63.3446 84.1013 60.0309L84.1013 30.4126C84.1013 27.0989 86.7876 24.4126 90.1013 24.4126L105.704 24.4126Z" fill="#FBD15E"/>
<path d="M146.072 268.396L146.072 270.412L144.056 270.412L144.056 268.396L146.072 268.396ZM146.072 270.772L146.072 272.788L144.056 272.788L144.056 270.772L146.072 270.772ZM146.072 280.312L146.072 282.328L144.056 282.328L144.056 280.312L146.072 280.312ZM146.072 282.688L146.072 284.704L144.056 284.704L144.056 282.688L146.072 282.688ZM143.696 268.396L143.696 270.412L141.68 270.412L141.68 268.396L143.696 268.396ZM143.696 270.772L143.696 272.788L141.68 272.788L141.68 270.772L143.696 270.772ZM143.696 280.312L143.696 282.328L141.68 282.328L141.68 280.312L143.696 280.312ZM143.696 282.688L143.696 284.704L141.68 284.704L141.68 282.688L143.696 282.688ZM141.32 270.772L141.32 272.788L139.304 272.788L139.304 270.772L141.32 270.772ZM141.32 273.148L141.32 275.164L139.304 275.164L139.304 273.148L141.32 273.148ZM141.32 275.524L141.32 277.54L139.304 277.54L139.304 275.524L141.32 275.524ZM141.32 277.936L141.32 279.952L139.304 279.952L139.304 277.936L141.32 277.936ZM141.32 280.312L141.32 282.328L139.304 282.328L139.304 280.312L141.32 280.312ZM141.32 282.688L141.32 284.704L139.304 284.704L139.304 282.688L141.32 282.688ZM155.612 280.312L155.612 282.328L153.596 282.328L153.596 280.312L155.612 280.312ZM155.612 282.688L155.612 284.704L153.596 284.704L153.596 282.688L155.612 282.688ZM153.236 280.312L153.236 282.328L151.22 282.328L151.22 280.312L153.236 280.312ZM153.236 282.688L153.236 284.704L151.22 284.704L151.22 282.688L153.236 282.688ZM150.86 270.772L150.86 272.788L148.844 272.788L148.844 270.772L150.86 270.772ZM150.86 273.148L150.86 275.164L148.844 275.164L148.844 273.148L150.86 273.148ZM150.86 275.524L150.86 277.54L148.844 277.54L148.844 275.524L150.86 275.524ZM150.86 277.936L150.86 279.952L148.844 279.952L148.844 277.936L150.86 277.936ZM150.86 280.312L150.86 282.328L148.844 282.328L148.844 280.312L150.86 280.312ZM150.86 282.688L150.86 284.704L148.844 284.704L148.844 282.688L150.86 282.688ZM148.484 268.396L148.484 270.412L146.468 270.412L146.468 268.396L148.484 268.396ZM148.484 270.772L148.484 272.788L146.468 272.788L146.468 270.772L148.484 270.772ZM148.484 280.312L148.484 282.328L146.468 282.328L146.468 280.312L148.484 280.312ZM148.484 282.688L148.484 284.704L146.468 284.704L146.468 282.688L148.484 282.688Z" fill="#7F7F7F"/>
<path d="M146.072 254.439L146.072 256.455L144.056 256.455L144.056 254.439L146.072 254.439ZM146.072 256.815L146.072 258.831L144.056 258.831L144.056 256.815L146.072 256.815ZM143.696 254.439L143.696 256.455L141.68 256.455L141.68 254.439L143.696 254.439ZM143.696 256.815L143.696 258.831L141.68 258.831L141.68 256.815L143.696 256.815ZM141.32 254.439L141.32 256.455L139.304 256.455L139.304 254.439L141.32 254.439ZM141.32 256.815L141.32 258.831L139.304 258.831L139.304 256.815L141.32 256.815ZM150.86 254.439L150.86 256.455L148.844 256.455L148.844 254.439L150.86 254.439ZM150.86 256.815L150.86 258.831L148.844 258.831L148.844 256.815L150.86 256.815ZM150.86 261.567L150.86 263.583L148.844 263.583L148.844 261.567L150.86 261.567ZM150.86 263.979L150.86 265.995L148.844 265.995L148.844 263.979L150.86 263.979ZM148.484 254.439L148.484 256.455L146.468 256.455L146.468 254.439L148.484 254.439ZM148.484 256.815L148.484 258.831L146.468 258.831L146.468 256.815L148.484 256.815ZM148.484 259.191L148.484 261.207L146.468 261.207L146.468 259.191L148.484 259.191Z" fill="#7F7F7F"/>
<path d="M146.072 238.112L146.072 240.128L144.056 240.128L144.056 238.112L146.072 238.112ZM146.072 240.488L146.072 242.504L144.056 242.504L144.056 240.488L146.072 240.488ZM146.072 242.864L146.072 244.88L144.056 244.88L144.056 242.864L146.072 242.864ZM146.072 245.276L146.072 247.292L144.056 247.292L144.056 245.276L146.072 245.276ZM146.072 247.652L146.072 249.668L144.056 249.668L144.056 247.652L146.072 247.652ZM146.072 250.028L146.072 252.044L144.056 252.044L144.056 250.028L146.072 250.028ZM143.696 235.736L143.696 237.752L141.68 237.752L141.68 235.736L143.696 235.736ZM143.696 238.112L143.696 240.128L141.68 240.128L141.68 238.112L143.696 238.112ZM143.696 247.652L143.696 249.668L141.68 249.668L141.68 247.652L143.696 247.652ZM143.696 250.028L143.696 252.044L141.68 252.044L141.68 250.028L143.696 250.028ZM141.32 238.112L141.32 240.128L139.304 240.128L139.304 238.112L141.32 238.112ZM141.32 240.488L141.32 242.504L139.304 242.504L139.304 240.488L141.32 240.488ZM141.32 242.864L141.32 244.88L139.304 244.88L139.304 242.864L141.32 242.864ZM141.32 245.276L141.32 247.292L139.304 247.292L139.304 245.276L141.32 245.276ZM141.32 247.652L141.32 249.668L139.304 249.668L139.304 247.652L141.32 247.652ZM141.32 250.028L141.32 252.044L139.304 252.044L139.304 250.028L141.32 250.028ZM150.86 238.112L150.86 240.128L148.844 240.128L148.844 238.112L150.86 238.112ZM150.86 240.488L150.86 242.504L148.844 242.504L148.844 240.488L150.86 240.488ZM150.86 242.864L150.86 244.88L148.844 244.88L148.844 242.864L150.86 242.864ZM150.86 245.276L150.86 247.292L148.844 247.292L148.844 245.276L150.86 245.276ZM150.86 247.652L150.86 249.668L148.844 249.668L148.844 247.652L150.86 247.652ZM148.484 247.652L148.484 249.668L146.468 249.668L146.468 247.652L148.484 247.652ZM148.484 250.028L148.484 252.044L146.468 252.044L146.468 250.028L148.484 250.028Z" fill="#7F7F7F"/>
<path d="M146.072 217.033L146.072 219.049L144.056 219.049L144.056 217.033L146.072 217.033ZM146.072 219.409L146.072 221.425L144.056 221.425L144.056 219.409L146.072 219.409ZM143.696 217.033L143.696 219.049L141.68 219.049L141.68 217.033L143.696 217.033ZM143.696 219.409L143.696 221.425L141.68 221.425L141.68 219.409L143.696 219.409ZM143.696 228.949L143.696 230.965L141.68 230.965L141.68 228.949L143.696 228.949ZM143.696 231.325L143.696 233.341L141.68 233.341L141.68 231.325L143.696 231.325ZM141.32 219.409L141.32 221.425L139.304 221.425L139.304 219.409L141.32 219.409ZM141.32 221.785L141.32 223.801L139.304 223.801L139.304 221.785L141.32 221.785ZM141.32 224.161L141.32 226.177L139.304 226.177L139.304 224.161L141.32 224.161ZM141.32 226.573L141.32 228.589L139.304 228.589L139.304 226.573L141.32 226.573ZM141.32 228.949L141.32 230.965L139.304 230.965L139.304 228.949L141.32 228.949ZM155.612 219.409L155.612 221.425L153.596 221.425L153.596 219.409L155.612 219.409ZM155.612 221.785L155.612 223.801L153.596 223.801L153.596 221.785L155.612 221.785ZM155.612 224.161L155.612 226.177L153.596 226.177L153.596 224.161L155.612 224.161ZM155.612 226.573L155.612 228.589L153.596 228.589L153.596 226.573L155.612 226.573ZM155.612 228.949L155.612 230.965L153.596 230.965L153.596 228.949L155.612 228.949ZM153.236 217.033L153.236 219.049L151.22 219.049L151.22 217.033L153.236 217.033ZM153.236 219.409L153.236 221.425L151.22 221.425L151.22 219.409L153.236 219.409ZM153.236 228.949L153.236 230.965L151.22 230.965L151.22 228.949L153.236 228.949ZM153.236 231.325L153.236 233.341L151.22 233.341L151.22 231.325L153.236 231.325ZM150.86 217.033L150.86 219.049L148.844 219.049L148.844 217.033L150.86 217.033ZM150.86 219.409L150.86 221.425L148.844 221.425L148.844 219.409L150.86 219.409ZM148.484 217.033L148.484 219.049L146.468 219.049L146.468 217.033L148.484 217.033ZM148.484 219.409L148.484 221.425L146.468 221.425L146.468 219.409L148.484 219.409Z" fill="#7F7F7F"/>
<path d="M146.072 179.627L146.072 181.643L144.056 181.643L144.056 179.627L146.072 179.627ZM146.072 182.003L146.072 184.019L144.056 184.019L144.056 182.003L146.072 182.003ZM146.072 191.543L146.072 193.559L144.056 193.559L144.056 191.543L146.072 191.543ZM146.072 193.919L146.072 195.935L144.056 195.935L144.056 193.919L146.072 193.919ZM143.696 179.627L143.696 181.643L141.68 181.643L141.68 179.627L143.696 179.627ZM143.696 182.003L143.696 184.019L141.68 184.019L141.68 182.003L143.696 182.003ZM143.696 191.543L143.696 193.559L141.68 193.559L141.68 191.543L143.696 191.543ZM143.696 193.919L143.696 195.935L141.68 195.935L141.68 193.919L143.696 193.919ZM141.32 182.003L141.32 184.019L139.304 184.019L139.304 182.003L141.32 182.003ZM141.32 184.379L141.32 186.395L139.304 186.395L139.304 184.379L141.32 184.379ZM141.32 186.755L141.32 188.771L139.304 188.771L139.304 186.755L141.32 186.755ZM141.32 189.167L141.32 191.183L139.304 191.183L139.304 189.167L141.32 189.167ZM141.32 191.543L141.32 193.559L139.304 193.559L139.304 191.543L141.32 191.543ZM141.32 193.919L141.32 195.935L139.304 195.935L139.304 193.919L141.32 193.919ZM155.612 191.543L155.612 193.559L153.596 193.559L153.596 191.543L155.612 191.543ZM155.612 193.919L155.612 195.935L153.596 195.935L153.596 193.919L155.612 193.919ZM153.236 191.543L153.236 193.559L151.22 193.559L151.22 191.543L153.236 191.543ZM153.236 193.919L153.236 195.935L151.22 195.935L151.22 193.919L153.236 193.919ZM150.86 182.003L150.86 184.019L148.844 184.019L148.844 182.003L150.86 182.003ZM150.86 184.379L150.86 186.395L148.844 186.395L148.844 184.379L150.86 184.379ZM150.86 186.755L150.86 188.771L148.844 188.771L148.844 186.755L150.86 186.755ZM150.86 189.167L150.86 191.183L148.844 191.183L148.844 189.167L150.86 189.167ZM150.86 191.543L150.86 193.559L148.844 193.559L148.844 191.543L150.86 191.543ZM150.86 193.919L150.86 195.935L148.844 195.935L148.844 193.919L150.86 193.919ZM148.484 179.627L148.484 181.643L146.468 181.643L146.468 179.627L148.484 179.627ZM148.484 182.003L148.484 184.019L146.468 184.019L146.468 182.003L148.484 182.003ZM148.484 191.543L148.484 193.559L146.468 193.559L146.468 191.543L148.484 191.543ZM148.484 193.919L148.484 195.935L146.468 195.935L146.468 193.919L148.484 193.919Z" fill="#7F7F7F"/>
<path d="M146.072 172.842L146.072 174.858L144.056 174.858L144.056 172.842L146.072 172.842ZM146.072 175.218L146.072 177.234L144.056 177.234L144.056 175.218L146.072 175.218ZM143.696 172.842L143.696 174.858L141.68 174.858L141.68 172.842L143.696 172.842ZM143.696 175.218L143.696 177.234L141.68 177.234L141.68 175.218L143.696 175.218ZM141.32 172.842L141.32 174.858L139.304 174.858L139.304 172.842L141.32 172.842ZM141.32 175.218L141.32 177.234L139.304 177.234L139.304 175.218L141.32 175.218ZM155.612 172.842L155.612 174.858L153.596 174.858L153.596 172.842L155.612 172.842ZM155.612 175.218L155.612 177.234L153.596 177.234L153.596 175.218L155.612 175.218ZM153.236 172.842L153.236 174.858L151.22 174.858L151.22 172.842L153.236 172.842ZM153.236 175.218L153.236 177.234L151.22 177.234L151.22 175.218L153.236 175.218ZM150.86 172.842L150.86 174.858L148.844 174.858L148.844 172.842L150.86 172.842ZM150.86 175.218L150.86 177.234L148.844 177.234L148.844 175.218L150.86 175.218ZM148.484 172.842L148.484 174.858L146.468 174.858L146.468 172.842L148.484 172.842ZM148.484 175.218L148.484 177.234L146.468 177.234L146.468 175.218L148.484 175.218Z" fill="#7F7F7F"/>
<path d="M146.072 154.138L146.072 156.154L144.056 156.154L144.056 154.138L146.072 154.138ZM146.072 156.514L146.072 158.53L144.056 158.53L144.056 156.514L146.072 156.514ZM146.072 166.054L146.072 168.07L144.056 168.07L144.056 166.054L146.072 166.054ZM146.072 168.43L146.072 170.446L144.056 170.446L144.056 168.43L146.072 168.43ZM143.696 154.138L143.696 156.154L141.68 156.154L141.68 154.138L143.696 154.138ZM143.696 156.514L143.696 158.53L141.68 158.53L141.68 156.514L143.696 156.514ZM143.696 166.054L143.696 168.07L141.68 168.07L141.68 166.054L143.696 166.054ZM143.696 168.43L143.696 170.446L141.68 170.446L141.68 168.43L143.696 168.43ZM141.32 156.514L141.32 158.53L139.304 158.53L139.304 156.514L141.32 156.514ZM141.32 158.89L141.32 160.906L139.304 160.906L139.304 158.89L141.32 158.89ZM141.32 161.266L141.32 163.282L139.304 163.282L139.304 161.266L141.32 161.266ZM141.32 163.678L141.32 165.694L139.304 165.694L139.304 163.678L141.32 163.678ZM141.32 166.054L141.32 168.07L139.304 168.07L139.304 166.054L141.32 166.054ZM150.86 156.514L150.86 158.53L148.844 158.53L148.844 156.514L150.86 156.514ZM150.86 158.89L150.86 160.906L148.844 160.906L148.844 158.89L150.86 158.89ZM150.86 161.266L150.86 163.282L148.844 163.282L148.844 161.266L150.86 161.266ZM150.86 163.678L150.86 165.694L148.844 165.694L148.844 163.678L150.86 163.678ZM150.86 166.054L150.86 168.07L148.844 168.07L148.844 166.054L150.86 166.054ZM148.484 154.138L148.484 156.154L146.468 156.154L146.468 154.138L148.484 154.138ZM148.484 156.514L148.484 158.53L146.468 158.53L146.468 156.514L148.484 156.514ZM148.484 166.054L148.484 168.07L146.468 168.07L146.468 166.054L148.484 166.054ZM148.484 168.43L148.484 170.446L146.468 170.446L146.468 168.43L148.484 168.43Z" fill="#7F7F7F"/>
<path d="M146.072 135.435L146.072 137.451L144.056 137.451L144.056 135.435L146.072 135.435ZM146.072 137.811L146.072 139.827L144.056 139.827L144.056 137.811L146.072 137.811ZM146.072 147.351L146.072 149.367L144.056 149.367L144.056 147.351L146.072 147.351ZM146.072 149.727L146.072 151.743L144.056 151.743L144.056 149.727L146.072 149.727ZM143.696 135.435L143.696 137.451L141.68 137.451L141.68 135.435L143.696 135.435ZM143.696 137.811L143.696 139.827L141.68 139.827L141.68 137.811L143.696 137.811ZM143.696 147.351L143.696 149.367L141.68 149.367L141.68 147.351L143.696 147.351ZM143.696 149.727L143.696 151.743L141.68 151.743L141.68 149.727L143.696 149.727ZM141.32 137.811L141.32 139.827L139.304 139.827L139.304 137.811L141.32 137.811ZM141.32 140.187L141.32 142.203L139.304 142.203L139.304 140.187L141.32 140.187ZM141.32 142.563L141.32 144.579L139.304 144.579L139.304 142.563L141.32 142.563ZM141.32 144.975L141.32 146.991L139.304 146.991L139.304 144.975L141.32 144.975ZM141.32 147.351L141.32 149.367L139.304 149.367L139.304 147.351L141.32 147.351ZM155.612 137.811L155.612 139.827L153.596 139.827L153.596 137.811L155.612 137.811ZM155.612 140.187L155.612 142.203L153.596 142.203L153.596 140.187L155.612 140.187ZM155.612 142.563L155.612 144.579L153.596 144.579L153.596 142.563L155.612 142.563ZM155.612 144.975L155.612 146.991L153.596 146.991L153.596 144.975L155.612 144.975ZM155.612 147.351L155.612 149.367L153.596 149.367L153.596 147.351L155.612 147.351ZM153.236 135.435L153.236 137.451L151.22 137.451L151.22 135.435L153.236 135.435ZM153.236 137.811L153.236 139.827L151.22 139.827L151.22 137.811L153.236 137.811ZM153.236 147.351L153.236 149.367L151.22 149.367L151.22 147.351L153.236 147.351ZM153.236 149.727L153.236 151.743L151.22 151.743L151.22 149.727L153.236 149.727ZM150.86 135.435L150.86 137.451L148.844 137.451L148.844 135.435L150.86 135.435ZM150.86 137.811L150.86 139.827L148.844 139.827L148.844 137.811L150.86 137.811ZM148.484 135.435L148.484 137.451L146.468 137.451L146.468 135.435L148.484 135.435ZM148.484 137.811L148.484 139.827L146.468 139.827L146.468 137.811L148.484 137.811ZM148.484 144.975L148.484 146.991L146.468 146.991L146.468 144.975L148.484 144.975ZM148.484 147.351L148.484 149.367L146.468 149.367L146.468 147.351L148.484 147.351ZM148.484 149.727L148.484 151.743L146.468 151.743L146.468 149.727L148.484 149.727Z" fill="#7F7F7F"/>
<path d="M58.2841 189.502L58.2841 190.622L57.1641 190.622L57.1641 189.502L58.2841 189.502ZM58.2841 192.142L58.2841 193.262L57.1641 193.262L57.1641 192.142L58.2841 192.142ZM60.9441 189.502L60.9441 190.622L59.8241 190.622L59.8241 189.502L60.9441 189.502ZM60.9441 192.142L60.9441 193.262L59.8241 193.262L59.8241 192.142L60.9441 192.142ZM59.6241 190.822L59.6241 191.942L58.5041 191.942L58.5041 190.822L59.6241 190.822Z" fill="#D3D3D3"/>
<path d="M58.2841 179.112L58.2841 180.232L57.1641 180.232L57.1641 179.112L58.2841 179.112ZM58.2841 181.752L58.2841 182.872L57.1641 182.872L57.1641 181.752L58.2841 181.752ZM60.9441 179.112L60.9441 180.232L59.8241 180.232L59.8241 179.112L60.9441 179.112ZM60.9441 181.752L60.9441 182.872L59.8241 182.872L59.8241 181.752L60.9441 181.752ZM59.6241 180.432L59.6241 181.552L58.5041 181.552L58.5041 180.432L59.6241 180.432Z" fill="#D3D3D3"/>
<path d="M58.2841 168.721L58.2841 169.841L57.1641 169.841L57.1641 168.721L58.2841 168.721ZM58.2841 171.361L58.2841 172.481L57.1641 172.481L57.1641 171.361L58.2841 171.361ZM60.9441 168.721L60.9441 169.841L59.8241 169.841L59.8241 168.721L60.9441 168.721ZM60.9441 171.361L60.9441 172.481L59.8241 172.481L59.8241 171.361L60.9441 171.361ZM59.6241 170.041L59.6241 171.161L58.5041 171.161L58.5041 170.041L59.6241 170.041Z" fill="#D3D3D3"/>
<path d="M58.2841 158.33L58.2841 159.45L57.1641 159.45L57.1641 158.33L58.2841 158.33ZM58.2841 160.97L58.2841 162.09L57.1641 162.09L57.1641 160.97L58.2841 160.97ZM60.9441 158.33L60.9441 159.45L59.8241 159.45L59.8241 158.33L60.9441 158.33ZM60.9441 160.97L60.9441 162.09L59.8241 162.09L59.8241 160.97L60.9441 160.97ZM59.6241 159.65L59.6241 160.77L58.5041 160.77L58.5041 159.65L59.6241 159.65Z" fill="#D3D3D3"/>
<path d="M59.624 149.061L59.624 150.181L58.504 150.181L58.504 149.061L59.624 149.061ZM59.624 150.381L59.624 151.501L58.504 151.501L58.504 150.381L59.624 150.381ZM59.624 151.701L59.624 152.821L58.504 152.821L58.504 151.701L59.624 151.701ZM59.624 153.021L59.624 154.141L58.504 154.141L58.504 153.021L59.624 153.021ZM59.624 154.361L59.624 155.481L58.504 155.481L58.504 154.361L59.624 154.361Z" fill="#D3D3D3"/>
<path d="M58.284 142.658L58.284 143.778L57.164 143.778L57.164 142.658L58.284 142.658ZM58.284 143.978L58.284 145.098L57.164 145.098L57.164 143.978L58.284 143.978ZM56.964 142.658L56.964 143.778L55.844 143.778L55.844 142.658L56.964 142.658ZM56.964 143.978L56.964 145.098L55.844 145.098L55.844 143.978L56.964 143.978ZM55.644 140.018L55.644 141.138L54.524 141.138L54.524 140.018L55.644 140.018ZM55.644 141.338L55.644 142.458L54.524 142.458L54.524 141.338L55.644 141.338ZM55.644 142.658L55.644 143.778L54.524 143.778L54.524 142.658L55.644 142.658ZM55.644 143.978L55.644 145.098L54.524 145.098L54.524 143.978L55.644 143.978ZM55.644 145.318L55.644 146.438L54.524 146.438L54.524 145.318L55.644 145.318ZM55.644 146.638L55.644 147.758L54.524 147.758L54.524 146.638L55.644 146.638ZM63.584 142.658L63.584 143.778L62.464 143.778L62.464 142.658L63.584 142.658ZM63.584 143.978L63.584 145.098L62.464 145.098L62.464 143.978L63.584 143.978ZM62.264 141.338L62.264 142.458L61.144 142.458L61.144 141.338L62.264 141.338ZM62.264 142.658L62.264 143.778L61.144 143.778L61.144 142.658L62.264 142.658ZM62.264 143.978L62.264 145.098L61.144 145.098L61.144 143.978L62.264 143.978ZM60.944 142.658L60.944 143.778L59.824 143.778L59.824 142.658L60.944 142.658ZM60.944 143.978L60.944 145.098L59.824 145.098L59.824 143.978L60.944 143.978ZM59.624 142.658L59.624 143.778L58.504 143.778L58.504 142.658L59.624 142.658ZM59.624 143.978L59.624 145.098L58.504 145.098L58.504 143.978L59.624 143.978Z" fill="#D3D3D3"/>
<path d="M58.284 130.936L58.284 132.056L57.164 132.056L57.164 130.936L58.284 130.936ZM58.284 132.256L58.284 133.376L57.164 133.376L57.164 132.256L58.284 132.256ZM58.284 136.236L58.284 137.356L57.164 137.356L57.164 136.236L58.284 136.236ZM58.284 137.556L58.284 138.676L57.164 138.676L57.164 137.556L58.284 137.556ZM56.964 130.936L56.964 132.056L55.844 132.056L55.844 130.936L56.964 130.936ZM56.964 132.256L56.964 133.376L55.844 133.376L55.844 132.256L56.964 132.256ZM56.964 136.236L56.964 137.356L55.844 137.356L55.844 136.236L56.964 136.236ZM56.964 137.556L56.964 138.676L55.844 138.676L55.844 137.556L56.964 137.556ZM55.644 132.256L55.644 133.376L54.524 133.376L54.524 132.256L55.644 132.256ZM55.644 133.576L55.644 134.696L54.524 134.696L54.524 133.576L55.644 133.576ZM55.644 134.896L55.644 136.016L54.524 136.016L54.524 134.896L55.644 134.896ZM55.644 136.236L55.644 137.356L54.524 137.356L54.524 136.236L55.644 136.236ZM63.584 132.256L63.584 133.376L62.464 133.376L62.464 132.256L63.584 132.256ZM63.584 133.576L63.584 134.696L62.464 134.696L62.464 133.576L63.584 133.576ZM63.584 134.896L63.584 136.016L62.464 136.016L62.464 134.896L63.584 134.896ZM63.584 136.236L63.584 137.356L62.464 137.356L62.464 136.236L63.584 136.236ZM62.264 130.936L62.264 132.056L61.144 132.056L61.144 130.936L62.264 130.936ZM62.264 132.256L62.264 133.376L61.144 133.376L61.144 132.256L62.264 132.256ZM62.264 136.236L62.264 137.356L61.144 137.356L61.144 136.236L62.264 136.236ZM62.264 137.556L62.264 138.676L61.144 138.676L61.144 137.556L62.264 137.556ZM60.944 130.936L60.944 132.056L59.824 132.056L59.824 130.936L60.944 130.936ZM60.944 132.256L60.944 133.376L59.824 133.376L59.824 132.256L60.944 132.256ZM60.944 136.236L60.944 137.356L59.824 137.356L59.824 136.236L60.944 136.236ZM60.944 137.556L60.944 138.676L59.824 138.676L59.824 137.556L60.944 137.556ZM59.624 130.936L59.624 132.056L58.504 132.056L58.504 130.936L59.624 130.936ZM59.624 132.256L59.624 133.376L58.504 133.376L58.504 132.256L59.624 132.256ZM59.624 136.236L59.624 137.356L58.504 137.356L58.504 136.236L59.624 136.236ZM59.624 137.556L59.624 138.676L58.504 138.676L58.504 137.556L59.624 137.556Z" fill="#D3D3D3"/>
<path d="M58.284 124.533L58.284 125.653L57.164 125.653L57.164 124.533L58.284 124.533ZM58.284 125.853L58.284 126.973L57.164 126.973L57.164 125.853L58.284 125.853ZM56.964 124.533L56.964 125.653L55.844 125.653L55.844 124.533L56.964 124.533ZM56.964 125.853L56.964 126.973L55.844 126.973L55.844 125.853L56.964 125.853ZM55.644 121.893L55.644 123.013L54.524 123.013L54.524 121.893L55.644 121.893ZM55.644 123.213L55.644 124.333L54.524 124.333L54.524 123.213L55.644 123.213ZM55.644 124.533L55.644 125.653L54.524 125.653L54.524 124.533L55.644 124.533ZM55.644 125.853L55.644 126.973L54.524 126.973L54.524 125.853L55.644 125.853ZM55.644 127.193L55.644 128.313L54.524 128.313L54.524 127.193L55.644 127.193ZM55.644 128.513L55.644 129.633L54.524 129.633L54.524 128.513L55.644 128.513ZM63.584 124.533L63.584 125.653L62.464 125.653L62.464 124.533L63.584 124.533ZM63.584 125.853L63.584 126.973L62.464 126.973L62.464 125.853L63.584 125.853ZM62.264 123.213L62.264 124.333L61.144 124.333L61.144 123.213L62.264 123.213ZM62.264 124.533L62.264 125.653L61.144 125.653L61.144 124.533L62.264 124.533ZM62.264 125.853L62.264 126.973L61.144 126.973L61.144 125.853L62.264 125.853ZM60.944 124.533L60.944 125.653L59.824 125.653L59.824 124.533L60.944 124.533ZM60.944 125.853L60.944 126.973L59.824 126.973L59.824 125.853L60.944 125.853ZM59.624 124.533L59.624 125.653L58.504 125.653L58.504 124.533L59.624 124.533ZM59.624 125.853L59.624 126.973L58.504 126.973L58.504 125.853L59.624 125.853Z" fill="#D3D3D3"/>
<path d="M58.284 112.811L58.284 113.931L57.164 113.931L57.164 112.811L58.284 112.811ZM58.284 114.131L58.284 115.251L57.164 115.251L57.164 114.131L58.284 114.131ZM58.284 118.111L58.284 119.231L57.164 119.231L57.164 118.111L58.284 118.111ZM58.284 119.431L58.284 120.551L57.164 120.551L57.164 119.431L58.284 119.431ZM56.964 112.811L56.964 113.931L55.844 113.931L55.844 112.811L56.964 112.811ZM56.964 114.131L56.964 115.251L55.844 115.251L55.844 114.131L56.964 114.131ZM56.964 118.111L56.964 119.231L55.844 119.231L55.844 118.111L56.964 118.111ZM56.964 119.431L56.964 120.551L55.844 120.551L55.844 119.431L56.964 119.431ZM55.644 114.131L55.644 115.251L54.524 115.251L54.524 114.131L55.644 114.131ZM55.644 115.451L55.644 116.571L54.524 116.571L54.524 115.451L55.644 115.451ZM55.644 116.771L55.644 117.891L54.524 117.891L54.524 116.771L55.644 116.771ZM55.644 118.111L55.644 119.231L54.524 119.231L54.524 118.111L55.644 118.111ZM63.584 114.131L63.584 115.251L62.464 115.251L62.464 114.131L63.584 114.131ZM63.584 115.451L63.584 116.571L62.464 116.571L62.464 115.451L63.584 115.451ZM63.584 116.771L63.584 117.891L62.464 117.891L62.464 116.771L63.584 116.771ZM63.584 118.111L63.584 119.231L62.464 119.231L62.464 118.111L63.584 118.111ZM62.264 112.811L62.264 113.931L61.144 113.931L61.144 112.811L62.264 112.811ZM62.264 114.131L62.264 115.251L61.144 115.251L61.144 114.131L62.264 114.131ZM62.264 118.111L62.264 119.231L61.144 119.231L61.144 118.111L62.264 118.111ZM62.264 119.431L62.264 120.551L61.144 120.551L61.144 119.431L62.264 119.431ZM60.944 112.811L60.944 113.931L59.824 113.931L59.824 112.811L60.944 112.811ZM60.944 114.131L60.944 115.251L59.824 115.251L59.824 114.131L60.944 114.131ZM60.944 118.111L60.944 119.231L59.824 119.231L59.824 118.111L60.944 118.111ZM60.944 119.431L60.944 120.551L59.824 120.551L59.824 119.431L60.944 119.431ZM59.624 112.811L59.624 113.931L58.504 113.931L58.504 112.811L59.624 112.811ZM59.624 114.131L59.624 115.251L58.504 115.251L58.504 114.131L59.624 114.131ZM59.624 118.111L59.624 119.231L58.504 119.231L58.504 118.111L59.624 118.111ZM59.624 119.431L59.624 120.551L58.504 120.551L58.504 119.431L59.624 119.431Z" fill="#D3D3D3"/>
<path d="M59.624 104.862L59.624 105.982L58.504 105.982L58.504 104.862L59.624 104.862ZM59.624 106.182L59.624 107.302L58.504 107.302L58.504 106.182L59.624 106.182ZM59.624 107.502L59.624 108.622L58.504 108.622L58.504 107.502L59.624 107.502ZM59.624 108.822L59.624 109.942L58.504 109.942L58.504 108.822L59.624 108.822ZM59.624 110.162L59.624 111.282L58.504 111.282L58.504 110.162L59.624 110.162Z" fill="#D3D3D3"/>
<path d="M58.284 98.4588L58.284 99.5788L57.164 99.5788L57.164 98.4588L58.284 98.4588ZM58.284 99.7788L58.284 100.899L57.164 100.899L57.164 99.7788L58.284 99.7788ZM56.964 98.4588L56.964 99.5788L55.844 99.5788L55.844 98.4588L56.964 98.4588ZM56.964 99.7788L56.964 100.899L55.844 100.899L55.844 99.7788L56.964 99.7788ZM55.644 95.8188L55.644 96.9389L54.524 96.9389L54.524 95.8188L55.644 95.8188ZM55.644 97.1388L55.644 98.2588L54.524 98.2588L54.524 97.1388L55.644 97.1388ZM55.644 98.4588L55.644 99.5788L54.524 99.5788L54.524 98.4588L55.644 98.4588ZM55.644 99.7788L55.644 100.899L54.524 100.899L54.524 99.7788L55.644 99.7788ZM55.644 101.119L55.644 102.239L54.524 102.239L54.524 101.119L55.644 101.119ZM55.644 102.439L55.644 103.559L54.524 103.559L54.524 102.439L55.644 102.439ZM63.584 98.4588L63.584 99.5788L62.464 99.5788L62.464 98.4588L63.584 98.4588ZM63.584 99.7788L63.584 100.899L62.464 100.899L62.464 99.7788L63.584 99.7788ZM62.264 97.1388L62.264 98.2589L61.144 98.2588L61.144 97.1388L62.264 97.1388ZM62.264 98.4588L62.264 99.5788L61.144 99.5788L61.144 98.4588L62.264 98.4588ZM62.264 99.7788L62.264 100.899L61.144 100.899L61.144 99.7788L62.264 99.7788ZM60.944 98.4588L60.944 99.5788L59.824 99.5788L59.824 98.4588L60.944 98.4588ZM60.944 99.7788L60.944 100.899L59.824 100.899L59.824 99.7788L60.944 99.7788ZM59.624 98.4588L59.624 99.5788L58.504 99.5788L58.504 98.4588L59.624 98.4588ZM59.624 99.7788L59.624 100.899L58.504 100.899L58.504 99.7788L59.624 99.7788Z" fill="#D3D3D3"/>
<path d="M58.284 89.4159L58.284 90.5359L57.164 90.5359L57.164 89.4159L58.284 89.4159ZM58.284 90.7359L58.284 91.8559L57.164 91.8559L57.164 90.7359L58.284 90.7359ZM56.964 89.4159L56.964 90.5359L55.844 90.5359L55.844 89.4159L56.964 89.4159ZM56.964 90.7359L56.964 91.8559L55.844 91.8559L55.844 90.7359L56.964 90.7359ZM55.644 86.7759L55.644 87.8959L54.524 87.8959L54.524 86.7759L55.644 86.7759ZM55.644 88.0959L55.644 89.2159L54.524 89.2159L54.524 88.0959L55.644 88.0959ZM55.644 89.4159L55.644 90.5359L54.524 90.5359L54.524 89.4159L55.644 89.4159ZM55.644 90.7359L55.644 91.8559L54.524 91.8559L54.524 90.7359L55.644 90.7359ZM55.644 92.0759L55.644 93.1959L54.524 93.1959L54.524 92.0759L55.644 92.0759ZM55.644 93.3959L55.644 94.5159L54.524 94.5159L54.524 93.3959L55.644 93.3959ZM63.584 89.4159L63.584 90.5359L62.464 90.5359L62.464 89.4159L63.584 89.4159ZM63.584 90.7359L63.584 91.8559L62.464 91.8559L62.464 90.7359L63.584 90.7359ZM62.264 88.0959L62.264 89.2159L61.144 89.2159L61.144 88.0959L62.264 88.0959ZM62.264 89.4159L62.264 90.5359L61.144 90.5359L61.144 89.4159L62.264 89.4159ZM62.264 90.7359L62.264 91.8559L61.144 91.8559L61.144 90.7359L62.264 90.7359ZM60.944 89.4159L60.944 90.5359L59.824 90.5359L59.824 89.4159L60.944 89.4159ZM60.944 90.7359L60.944 91.8559L59.824 91.8559L59.824 90.7359L60.944 90.7359ZM59.624 89.4159L59.624 90.5359L58.504 90.5359L58.504 89.4159L59.624 89.4159ZM59.624 90.7359L59.624 91.8559L58.504 91.8559L58.504 90.7359L59.624 90.7359Z" fill="#D3D3D3"/>
<path d="M58.284 80.3729L58.284 81.4929L57.164 81.4929L57.164 80.3729L58.284 80.3729ZM58.284 81.6929L58.284 82.8129L57.164 82.8129L57.164 81.6929L58.284 81.6929ZM56.964 80.3729L56.964 81.4929L55.844 81.4929L55.844 80.3729L56.964 80.3729ZM56.964 81.6929L56.964 82.8129L55.844 82.8129L55.844 81.6929L56.964 81.6929ZM55.644 77.7329L55.644 78.8529L54.524 78.8529L54.524 77.7329L55.644 77.7329ZM55.644 79.0529L55.644 80.1729L54.524 80.1729L54.524 79.0529L55.644 79.0529ZM55.644 80.3729L55.644 81.4929L54.524 81.4929L54.524 80.3729L55.644 80.3729ZM55.644 81.6929L55.644 82.8129L54.524 82.8129L54.524 81.6929L55.644 81.6929ZM55.644 83.0329L55.644 84.1529L54.524 84.1529L54.524 83.0329L55.644 83.0329ZM55.644 84.3529L55.644 85.4729L54.524 85.4729L54.524 84.3529L55.644 84.3529ZM63.584 80.3729L63.584 81.4929L62.464 81.4929L62.464 80.3729L63.584 80.3729ZM63.584 81.6929L63.584 82.8129L62.464 82.8129L62.464 81.6929L63.584 81.6929ZM62.264 79.0529L62.264 80.1729L61.144 80.1729L61.144 79.0529L62.264 79.0529ZM62.264 80.3729L62.264 81.4929L61.144 81.4929L61.144 80.3729L62.264 80.3729ZM62.264 81.6929L62.264 82.8129L61.144 82.8129L61.144 81.6929L62.264 81.6929ZM60.944 80.3729L60.944 81.4929L59.824 81.4929L59.824 80.3729L60.944 80.3729ZM60.944 81.6929L60.944 82.8129L59.824 82.8129L59.824 81.6929L60.944 81.6929ZM59.624 80.3729L59.624 81.4929L58.504 81.4929L58.504 80.3729L59.624 80.3729ZM59.624 81.6929L59.624 82.8129L58.504 82.8129L58.504 81.6929L59.624 81.6929Z" fill="#D3D3D3"/>
<path d="M58.284 68.6509L58.284 69.7709L57.164 69.7709L57.164 68.6509L58.284 68.6509ZM58.284 69.9709L58.284 71.0909L57.164 71.0909L57.164 69.9709L58.284 69.9709ZM58.284 73.9509L58.284 75.0709L57.164 75.0709L57.164 73.9509L58.284 73.9509ZM58.284 75.2709L58.284 76.3909L57.164 76.3909L57.164 75.2709L58.284 75.2709ZM56.964 68.6509L56.964 69.7709L55.844 69.7709L55.844 68.6509L56.964 68.6509ZM56.964 69.9709L56.964 71.0909L55.844 71.0909L55.844 69.9709L56.964 69.9709ZM56.964 73.9509L56.964 75.0709L55.844 75.0709L55.844 73.9509L56.964 73.9509ZM56.964 75.2709L56.964 76.3909L55.844 76.3909L55.844 75.2709L56.964 75.2709ZM55.644 69.9709L55.644 71.0909L54.524 71.0909L54.524 69.9709L55.644 69.9709ZM55.644 71.2909L55.644 72.4109L54.524 72.4109L54.524 71.2909L55.644 71.2909ZM55.644 72.6109L55.644 73.7309L54.524 73.7309L54.524 72.6109L55.644 72.6109ZM55.644 73.9509L55.644 75.0709L54.524 75.0709L54.524 73.9509L55.644 73.9509ZM63.584 69.9709L63.584 71.0909L62.464 71.0909L62.464 69.9709L63.584 69.9709ZM63.584 71.2909L63.584 72.4109L62.464 72.4109L62.464 71.2909L63.584 71.2909ZM63.584 72.6109L63.584 73.7309L62.464 73.7309L62.464 72.6109L63.584 72.6109ZM63.584 73.9509L63.584 75.0709L62.464 75.0709L62.464 73.9509L63.584 73.9509ZM62.264 68.6509L62.264 69.7709L61.144 69.7709L61.144 68.6509L62.264 68.6509ZM62.264 69.9709L62.264 71.0909L61.144 71.0909L61.144 69.9709L62.264 69.9709ZM62.264 73.9509L62.264 75.0709L61.144 75.0709L61.144 73.9509L62.264 73.9509ZM62.264 75.2709L62.264 76.3909L61.144 76.3909L61.144 75.2709L62.264 75.2709ZM60.944 68.6509L60.944 69.7709L59.824 69.7709L59.824 68.6509L60.944 68.6509ZM60.944 69.9709L60.944 71.0909L59.824 71.0909L59.824 69.9709L60.944 69.9709ZM60.944 73.9509L60.944 75.0709L59.824 75.0709L59.824 73.9509L60.944 73.9509ZM60.944 75.2709L60.944 76.3909L59.824 76.3909L59.824 75.2709L60.944 75.2709ZM59.624 68.6509L59.624 69.7709L58.504 69.7709L58.504 68.6509L59.624 68.6509ZM59.624 69.9709L59.624 71.0909L58.504 71.0909L58.504 69.9709L59.624 69.9709ZM59.624 73.9509L59.624 75.0709L58.504 75.0709L58.504 73.9509L59.624 73.9509ZM59.624 75.2709L59.624 76.3909L58.504 76.3909L58.504 75.2709L59.624 75.2709Z" fill="#D3D3D3"/>
<path d="M59.624 60.7017L59.624 61.8217L58.504 61.8217L58.504 60.7017L59.624 60.7017ZM59.624 62.0217L59.624 63.1417L58.504 63.1417L58.504 62.0217L59.624 62.0217ZM59.624 63.3417L59.624 64.4617L58.504 64.4617L58.504 63.3417L59.624 63.3417ZM59.624 64.6617L59.624 65.7817L58.504 65.7817L58.504 64.6617L59.624 64.6617ZM59.624 66.0017L59.624 67.1217L58.504 67.1217L58.504 66.0017L59.624 66.0017Z" fill="#D3D3D3"/>
<path d="M58.284 51.6196L58.284 52.7396L57.164 52.7396L57.164 51.6196L58.284 51.6196ZM58.284 52.9396L58.284 54.0596L57.164 54.0596L57.164 52.9396L58.284 52.9396ZM58.284 56.9196L58.284 58.0396L57.164 58.0396L57.164 56.9196L58.284 56.9196ZM58.284 58.2396L58.284 59.3596L57.164 59.3596L57.164 58.2396L58.284 58.2396ZM56.964 51.6196L56.964 52.7396L55.844 52.7396L55.844 51.6196L56.964 51.6196ZM56.964 52.9396L56.964 54.0596L55.844 54.0596L55.844 52.9396L56.964 52.9396ZM56.964 56.9196L56.964 58.0396L55.844 58.0396L55.844 56.9196L56.964 56.9196ZM56.964 58.2396L56.964 59.3596L55.844 59.3596L55.844 58.2396L56.964 58.2396ZM55.644 52.9396L55.644 54.0596L54.524 54.0596L54.524 52.9396L55.644 52.9396ZM55.644 54.2596L55.644 55.3796L54.524 55.3796L54.524 54.2596L55.644 54.2596ZM55.644 55.5796L55.644 56.6996L54.524 56.6996L54.524 55.5796L55.644 55.5796ZM55.644 56.9196L55.644 58.0396L54.524 58.0396L54.524 56.9196L55.644 56.9196ZM63.584 52.9396L63.584 54.0596L62.464 54.0596L62.464 52.9396L63.584 52.9396ZM63.584 54.2596L63.584 55.3796L62.464 55.3796L62.464 54.2596L63.584 54.2596ZM63.584 55.5796L63.584 56.6996L62.464 56.6996L62.464 55.5796L63.584 55.5796ZM63.584 56.9196L63.584 58.0396L62.464 58.0396L62.464 56.9196L63.584 56.9196ZM62.264 51.6196L62.264 52.7396L61.144 52.7396L61.144 51.6196L62.264 51.6196ZM62.264 52.9396L62.264 54.0596L61.144 54.0596L61.144 52.9396L62.264 52.9396ZM62.264 56.9196L62.264 58.0396L61.144 58.0396L61.144 56.9196L62.264 56.9196ZM62.264 58.2396L62.264 59.3596L61.144 59.3596L61.144 58.2396L62.264 58.2396ZM60.944 51.6196L60.944 52.7396L59.824 52.7396L59.824 51.6196L60.944 51.6196ZM60.944 52.9396L60.944 54.0596L59.824 54.0596L59.824 52.9396L60.944 52.9396ZM60.944 56.9196L60.944 58.0396L59.824 58.0396L59.824 56.9196L60.944 56.9196ZM60.944 58.2396L60.944 59.3596L59.824 59.3596L59.824 58.2396L60.944 58.2396ZM59.624 51.6196L59.624 52.7396L58.504 52.7396L58.504 51.6196L59.624 51.6196ZM59.624 52.9396L59.624 54.0596L58.504 54.0596L58.504 52.9396L59.624 52.9396ZM59.624 56.9196L59.624 58.0396L58.504 58.0396L58.504 56.9196L59.624 56.9196ZM59.624 58.2396L59.624 59.3596L58.504 59.3596L58.504 58.2396L59.624 58.2396Z" fill="#D3D3D3"/>
<path d="M58.284 42.5376L58.284 43.6576L57.164 43.6576L57.164 42.5376L58.284 42.5376ZM58.284 43.8576L58.284 44.9776L57.164 44.9776L57.164 43.8576L58.284 43.8576ZM58.284 47.8376L58.284 48.9576L57.164 48.9576L57.164 47.8376L58.284 47.8376ZM58.284 49.1576L58.284 50.2776L57.164 50.2776L57.164 49.1576L58.284 49.1576ZM56.964 42.5376L56.964 43.6576L55.844 43.6576L55.844 42.5376L56.964 42.5376ZM56.964 43.8576L56.964 44.9776L55.844 44.9776L55.844 43.8576L56.964 43.8576ZM56.964 47.8376L56.964 48.9576L55.844 48.9576L55.844 47.8376L56.964 47.8376ZM56.964 49.1576L56.964 50.2776L55.844 50.2776L55.844 49.1576L56.964 49.1576ZM55.644 43.8576L55.644 44.9776L54.524 44.9776L54.524 43.8576L55.644 43.8576ZM55.644 45.1776L55.644 46.2976L54.524 46.2976L54.524 45.1776L55.644 45.1776ZM55.644 46.4976L55.644 47.6176L54.524 47.6176L54.524 46.4976L55.644 46.4976ZM55.644 47.8376L55.644 48.9576L54.524 48.9576L54.524 47.8376L55.644 47.8376ZM63.584 43.8576L63.584 44.9776L62.464 44.9776L62.464 43.8576L63.584 43.8576ZM63.584 45.1776L63.584 46.2976L62.464 46.2976L62.464 45.1776L63.584 45.1776ZM63.584 46.4976L63.584 47.6176L62.464 47.6176L62.464 46.4976L63.584 46.4976ZM63.584 47.8376L63.584 48.9576L62.464 48.9576L62.464 47.8376L63.584 47.8376ZM62.264 42.5376L62.264 43.6576L61.144 43.6576L61.144 42.5376L62.264 42.5376ZM62.264 43.8576L62.264 44.9776L61.144 44.9776L61.144 43.8576L62.264 43.8576ZM62.264 47.8376L62.264 48.9576L61.144 48.9576L61.144 47.8376L62.264 47.8376ZM62.264 49.1576L62.264 50.2776L61.144 50.2776L61.144 49.1576L62.264 49.1576ZM60.944 42.5376L60.944 43.6576L59.824 43.6576L59.824 42.5376L60.944 42.5376ZM60.944 43.8576L60.944 44.9776L59.824 44.9776L59.824 43.8576L60.944 43.8576ZM60.944 47.8376L60.944 48.9576L59.824 48.9576L59.824 47.8376L60.944 47.8376ZM60.944 49.1576L60.944 50.2776L59.824 50.2776L59.824 49.1576L60.944 49.1576ZM59.624 42.5376L59.624 43.6576L58.504 43.6576L58.504 42.5376L59.624 42.5376ZM59.624 43.8576L59.624 44.9776L58.504 44.9776L58.504 43.8576L59.624 43.8576ZM59.624 47.8376L59.624 48.9576L58.504 48.9576L58.504 47.8376L59.624 47.8376ZM59.624 49.1576L59.624 50.2776L58.504 50.2776L58.504 49.1576L59.624 49.1576Z" fill="#D3D3D3"/>
<path d="M58.284 36.1346L58.284 37.2546L57.164 37.2546L57.164 36.1346L58.284 36.1346ZM58.284 37.4546L58.284 38.5746L57.164 38.5746L57.164 37.4546L58.284 37.4546ZM56.964 36.1346L56.964 37.2546L55.844 37.2546L55.844 36.1346L56.964 36.1346ZM56.964 37.4546L56.964 38.5746L55.844 38.5746L55.844 37.4546L56.964 37.4546ZM55.644 33.4946L55.644 34.6146L54.524 34.6146L54.524 33.4946L55.644 33.4946ZM55.644 34.8146L55.644 35.9346L54.524 35.9346L54.524 34.8146L55.644 34.8146ZM55.644 36.1346L55.644 37.2546L54.524 37.2546L54.524 36.1346L55.644 36.1346ZM55.644 37.4546L55.644 38.5746L54.524 38.5746L54.524 37.4546L55.644 37.4546ZM55.644 38.7946L55.644 39.9146L54.524 39.9146L54.524 38.7946L55.644 38.7946ZM55.644 40.1146L55.644 41.2346L54.524 41.2346L54.524 40.1146L55.644 40.1146ZM63.584 36.1346L63.584 37.2546L62.464 37.2546L62.464 36.1346L63.584 36.1346ZM63.584 37.4546L63.584 38.5746L62.464 38.5746L62.464 37.4546L63.584 37.4546ZM62.264 34.8146L62.264 35.9346L61.144 35.9346L61.144 34.8146L62.264 34.8146ZM62.264 36.1346L62.264 37.2546L61.144 37.2546L61.144 36.1346L62.264 36.1346ZM62.264 37.4546L62.264 38.5746L61.144 38.5746L61.144 37.4546L62.264 37.4546ZM60.944 36.1346L60.944 37.2546L59.824 37.2546L59.824 36.1346L60.944 36.1346ZM60.944 37.4546L60.944 38.5746L59.824 38.5746L59.824 37.4546L60.944 37.4546ZM59.624 36.1346L59.624 37.2546L58.504 37.2546L58.504 36.1346L59.624 36.1346ZM59.624 37.4546L59.624 38.5746L58.504 38.5746L58.504 37.4546L59.624 37.4546Z" fill="#D3D3D3"/>
<path d="M58.284 24.4126L58.284 25.5326L57.164 25.5326L57.164 24.4126L58.284 24.4126ZM58.284 25.7326L58.284 26.8526L57.164 26.8526L57.164 25.7326L58.284 25.7326ZM58.284 29.7126L58.284 30.8326L57.164 30.8326L57.164 29.7126L58.284 29.7126ZM58.284 31.0326L58.284 32.1526L57.164 32.1526L57.164 31.0326L58.284 31.0326ZM56.964 24.4126L56.964 25.5326L55.844 25.5326L55.844 24.4126L56.964 24.4126ZM56.964 25.7326L56.964 26.8526L55.844 26.8526L55.844 25.7326L56.964 25.7326ZM56.964 29.7126L56.964 30.8326L55.844 30.8326L55.844 29.7126L56.964 29.7126ZM56.964 31.0326L56.964 32.1526L55.844 32.1526L55.844 31.0326L56.964 31.0326ZM55.644 25.7326L55.644 26.8526L54.524 26.8526L54.524 25.7326L55.644 25.7326ZM55.644 27.0526L55.644 28.1726L54.524 28.1726L54.524 27.0526L55.644 27.0526ZM55.644 28.3726L55.644 29.4926L54.524 29.4926L54.524 28.3726L55.644 28.3726ZM55.644 29.7126L55.644 30.8326L54.524 30.8326L54.524 29.7126L55.644 29.7126ZM63.584 25.7326L63.584 26.8526L62.464 26.8526L62.464 25.7326L63.584 25.7326ZM63.584 27.0526L63.584 28.1726L62.464 28.1726L62.464 27.0526L63.584 27.0526ZM63.584 28.3726L63.584 29.4926L62.464 29.4926L62.464 28.3726L63.584 28.3726ZM63.584 29.7126L63.584 30.8326L62.464 30.8326L62.464 29.7126L63.584 29.7126ZM62.264 24.4126L62.264 25.5326L61.144 25.5326L61.144 24.4126L62.264 24.4126ZM62.264 25.7326L62.264 26.8526L61.144 26.8526L61.144 25.7326L62.264 25.7326ZM62.264 29.7126L62.264 30.8326L61.144 30.8326L61.144 29.7126L62.264 29.7126ZM62.264 31.0326L62.264 32.1526L61.144 32.1526L61.144 31.0326L62.264 31.0326ZM60.944 24.4126L60.944 25.5326L59.824 25.5326L59.824 24.4126L60.944 24.4126ZM60.944 25.7326L60.944 26.8526L59.824 26.8526L59.824 25.7326L60.944 25.7326ZM60.944 29.7126L60.944 30.8326L59.824 30.8326L59.824 29.7126L60.944 29.7126ZM60.944 31.0326L60.944 32.1526L59.824 32.1526L59.824 31.0326L60.944 31.0326ZM59.624 24.4126L59.624 25.5326L58.504 25.5326L58.504 24.4126L59.624 24.4126ZM59.624 25.7326L59.624 26.8526L58.504 26.8526L58.504 25.7326L59.624 25.7326ZM59.624 29.7126L59.624 30.8326L58.504 30.8326L58.504 29.7126L59.624 29.7126ZM59.624 31.0326L59.624 32.1526L58.504 32.1526L58.504 31.0326L59.624 31.0326Z" fill="#D3D3D3"/>
<path d="M34.5342 128.319L34.5342 129.439L33.4142 129.439L33.4142 128.319L34.5342 128.319ZM34.5342 129.639L34.5342 130.759L33.4142 130.759L33.4142 129.639L34.5342 129.639ZM34.5342 133.619L34.5342 134.739L33.4142 134.739L33.4142 133.619L34.5342 133.619ZM34.5342 134.939L34.5342 136.059L33.4142 136.059L33.4142 134.939L34.5342 134.939ZM34.5342 136.259L34.5342 137.379L33.4142 137.379L33.4142 136.259L34.5342 136.259ZM33.2142 128.319L33.2142 129.439L32.0942 129.439L32.0942 128.319L33.2142 128.319ZM33.2142 129.639L33.2142 130.759L32.0942 130.759L32.0942 129.639L33.2142 129.639ZM33.2142 134.939L33.2142 136.059L32.0942 136.059L32.0942 134.939L33.2142 134.939ZM33.2142 136.259L33.2142 137.379L32.0942 137.379L32.0942 136.259L33.2142 136.259ZM31.8942 128.319L31.8942 129.439L30.7742 129.439L30.7742 128.319L31.8942 128.319ZM31.8942 129.639L31.8942 130.759L30.7742 130.759L30.7742 129.639L31.8942 129.639ZM31.8942 134.939L31.8942 136.059L30.7742 136.059L30.7742 134.939L31.8942 134.939ZM31.8942 136.259L31.8942 137.379L30.7742 137.379L30.7742 136.259L31.8942 136.259ZM39.8342 128.319L39.8342 129.439L38.7142 129.439L38.7142 128.319L39.8342 128.319ZM39.8342 129.639L39.8342 130.759L38.7142 130.759L38.7142 129.639L39.8342 129.639ZM39.8342 134.939L39.8342 136.059L38.7142 136.059L38.7142 134.939L39.8342 134.939ZM39.8342 136.259L39.8342 137.379L38.7142 137.379L38.7142 136.259L39.8342 136.259ZM38.5142 128.319L38.5142 129.439L37.3942 129.439L37.3942 128.319L38.5142 128.319ZM38.5142 129.639L38.5142 130.759L37.3942 130.759L37.3942 129.639L38.5142 129.639ZM38.5142 130.959L38.5142 132.079L37.3942 132.079L37.3942 130.959L38.5142 130.959ZM38.5142 134.939L38.5142 136.059L37.3942 136.059L37.3942 134.939L38.5142 134.939ZM38.5142 136.259L38.5142 137.379L37.3942 137.379L37.3942 136.259L38.5142 136.259ZM37.1942 128.319L37.1942 129.439L36.0742 129.439L36.0742 128.319L37.1942 128.319ZM37.1942 129.639L37.1942 130.759L36.0742 130.759L36.0742 129.639L37.1942 129.639ZM37.1942 130.959L37.1942 132.079L36.0742 132.079L36.0742 130.959L37.1942 130.959ZM37.1942 132.279L37.1942 133.399L36.0742 133.399L36.0742 132.279L37.1942 132.279ZM37.1942 134.939L37.1942 136.059L36.0742 136.059L36.0742 134.939L37.1942 134.939ZM37.1942 136.259L37.1942 137.379L36.0742 137.379L36.0742 136.259L37.1942 136.259ZM35.8742 128.319L35.8742 129.439L34.7542 129.439L34.7542 128.319L35.8742 128.319ZM35.8742 129.639L35.8742 130.759L34.7542 130.759L34.7542 129.639L35.8742 129.639ZM35.8742 132.279L35.8742 133.399L34.7542 133.399L34.7542 132.279L35.8742 132.279ZM35.8742 133.619L35.8742 134.739L34.7542 134.739L34.7542 133.619L35.8742 133.619ZM35.8742 134.939L35.8742 136.059L34.7542 136.059L34.7542 134.939L35.8742 134.939ZM35.8742 136.259L35.8742 137.379L34.7542 137.379L34.7542 136.259L35.8742 136.259Z" fill="#D3D3D3"/>
<path d="M34.5342 120.568L34.5342 121.688L33.4142 121.688L33.4142 120.568L34.5342 120.568ZM34.5342 121.888L34.5342 123.008L33.4142 123.008L33.4142 121.888L34.5342 121.888ZM33.2142 120.568L33.2142 121.688L32.0942 121.688L32.0942 120.568L33.2142 120.568ZM33.2142 121.888L33.2142 123.008L32.0942 123.008L32.0942 121.888L33.2142 121.888ZM31.8942 117.928L31.8942 119.048L30.7742 119.048L30.7742 117.928L31.8942 117.928ZM31.8942 119.248L31.8942 120.368L30.7742 120.368L30.7742 119.248L31.8942 119.248ZM31.8942 120.568L31.8942 121.688L30.7742 121.688L30.7742 120.568L31.8942 120.568ZM31.8942 121.888L31.8942 123.008L30.7742 123.008L30.7742 121.888L31.8942 121.888ZM31.8942 123.228L31.8942 124.348L30.7742 124.348L30.7742 123.228L31.8942 123.228ZM31.8942 124.548L31.8942 125.668L30.7742 125.668L30.7742 124.548L31.8942 124.548ZM39.8342 117.928L39.8342 119.048L38.7142 119.048L38.7142 117.928L39.8342 117.928ZM39.8342 119.248L39.8342 120.368L38.7142 120.368L38.7142 119.248L39.8342 119.248ZM39.8342 120.568L39.8342 121.688L38.7142 121.688L38.7142 120.568L39.8342 120.568ZM39.8342 121.888L39.8342 123.008L38.7142 123.008L38.7142 121.888L39.8342 121.888ZM39.8342 123.228L39.8342 124.348L38.7142 124.348L38.7142 123.228L39.8342 123.228ZM39.8342 124.548L39.8342 125.668L38.7142 125.668L38.7142 124.548L39.8342 124.548ZM38.5142 120.568L38.5142 121.688L37.3942 121.688L37.3942 120.568L38.5142 120.568ZM38.5142 121.888L38.5142 123.008L37.3942 123.008L37.3942 121.888L38.5142 121.888ZM37.1942 120.568L37.1942 121.688L36.0742 121.688L36.0742 120.568L37.1942 120.568ZM37.1942 121.888L37.1942 123.008L36.0742 123.008L36.0742 121.888L37.1942 121.888ZM35.8742 120.568L35.8742 121.688L34.7542 121.688L34.7542 120.568L35.8742 120.568ZM35.8742 121.888L35.8742 123.008L34.7542 123.008L34.7542 121.888L35.8742 121.888Z" fill="#D3D3D3"/>
<path d="M34.5342 112.838L34.5342 113.958L33.4142 113.958L33.4142 112.838L34.5342 112.838ZM34.5342 114.158L34.5342 115.278L33.4142 115.278L33.4142 114.158L34.5342 114.158ZM33.2142 107.538L33.2142 108.658L32.0942 108.658L32.0942 107.538L33.2142 107.538ZM33.2142 108.858L33.2142 109.978L32.0942 109.978L32.0942 108.858L33.2142 108.858ZM33.2142 112.838L33.2142 113.958L32.0942 113.958L32.0942 112.838L33.2142 112.838ZM33.2142 114.158L33.2142 115.278L32.0942 115.278L32.0942 114.158L33.2142 114.158ZM31.8942 108.858L31.8942 109.978L30.7742 109.978L30.7742 108.858L31.8942 108.858ZM31.8942 110.178L31.8942 111.298L30.7742 111.298L30.7742 110.178L31.8942 110.178ZM31.8942 111.498L31.8942 112.618L30.7742 112.618L30.7742 111.498L31.8942 111.498ZM31.8942 112.838L31.8942 113.958L30.7742 113.958L30.7742 112.838L31.8942 112.838ZM39.8342 110.178L39.8342 111.298L38.7142 111.298L38.7142 110.178L39.8342 110.178ZM39.8342 111.498L39.8342 112.618L38.7142 112.618L38.7142 111.498L39.8342 111.498ZM39.8342 112.838L39.8342 113.958L38.7142 113.958L38.7142 112.838L39.8342 112.838ZM39.8342 114.158L39.8342 115.278L38.7142 115.278L38.7142 114.158L39.8342 114.158ZM39.8342 115.478L39.8342 116.598L38.7142 116.598L38.7142 115.478L39.8342 115.478ZM38.5142 112.838L38.5142 113.958L37.3942 113.958L37.3942 112.838L38.5142 112.838ZM38.5142 114.158L38.5142 115.278L37.3942 115.278L37.3942 114.158L38.5142 114.158ZM37.1942 112.838L37.1942 113.958L36.0742 113.958L36.0742 112.838L37.1942 112.838ZM37.1942 114.158L37.1942 115.278L36.0742 115.278L36.0742 114.158L37.1942 114.158ZM35.8742 112.838L35.8742 113.958L34.7542 113.958L34.7542 112.838L35.8742 112.838ZM35.8742 114.158L35.8742 115.278L34.7542 115.278L34.7542 114.158L35.8742 114.158Z" fill="#D3D3D3"/>
<path d="M34.5342 97.147L34.5342 98.267L33.4142 98.267L33.4142 97.147L34.5342 97.147ZM34.5342 98.467L34.5342 99.587L33.4142 99.587L33.4142 98.467L34.5342 98.467ZM34.5342 103.767L34.5342 104.887L33.4142 104.887L33.4142 103.767L34.5342 103.767ZM34.5342 105.087L34.5342 106.207L33.4142 106.207L33.4142 105.087L34.5342 105.087ZM33.2142 97.147L33.2142 98.267L32.0942 98.267L32.0942 97.147L33.2142 97.147ZM33.2142 98.467L33.2142 99.587L32.0942 99.587L32.0942 98.467L33.2142 98.467ZM33.2142 103.767L33.2142 104.887L32.0942 104.887L32.0942 103.767L33.2142 103.767ZM33.2142 105.087L33.2142 106.207L32.0942 106.207L32.0942 105.087L33.2142 105.087ZM31.8942 98.467L31.8942 99.587L30.7742 99.587L30.7742 98.467L31.8942 98.467ZM31.8942 99.787L31.8942 100.907L30.7742 100.907L30.7742 99.787L31.8942 99.787ZM31.8942 101.107L31.8942 102.227L30.7742 102.227L30.7742 101.107L31.8942 101.107ZM31.8942 102.447L31.8942 103.567L30.7742 103.567L30.7742 102.447L31.8942 102.447ZM31.8942 103.767L31.8942 104.887L30.7742 104.887L30.7742 103.767L31.8942 103.767ZM39.8342 97.147L39.8342 98.267L38.7142 98.267L38.7142 97.147L39.8342 97.147ZM39.8342 98.467L39.8342 99.587L38.7142 99.587L38.7142 98.467L39.8342 98.467ZM39.8342 103.767L39.8342 104.887L38.7142 104.887L38.7142 103.767L39.8342 103.767ZM39.8342 105.087L39.8342 106.207L38.7142 106.207L38.7142 105.087L39.8342 105.087ZM38.5142 97.147L38.5142 98.267L37.3942 98.267L37.3942 97.147L38.5142 97.147ZM38.5142 98.467L38.5142 99.587L37.3942 99.587L37.3942 98.467L38.5142 98.467ZM38.5142 103.767L38.5142 104.887L37.3942 104.887L37.3942 103.767L38.5142 103.767ZM38.5142 105.087L38.5142 106.207L37.3942 106.207L37.3942 105.087L38.5142 105.087ZM37.1942 97.147L37.1942 98.267L36.0742 98.267L36.0742 97.147L37.1942 97.147ZM37.1942 98.467L37.1942 99.587L36.0742 99.587L36.0742 98.467L37.1942 98.467ZM37.1942 103.767L37.1942 104.887L36.0742 104.887L36.0742 103.767L37.1942 103.767ZM37.1942 105.087L37.1942 106.207L36.0742 106.207L36.0742 105.087L37.1942 105.087ZM35.8742 97.147L35.8742 98.267L34.7542 98.267L34.7542 97.147L35.8742 97.147ZM35.8742 98.467L35.8742 99.587L34.7542 99.587L34.7542 98.467L35.8742 98.467ZM35.8742 103.767L35.8742 104.887L34.7542 104.887L34.7542 103.767L35.8742 103.767ZM35.8742 105.087L35.8742 106.207L34.7542 106.207L34.7542 105.087L35.8742 105.087Z" fill="#D3D3D3"/>
<path d="M34.5342 86.7563L34.5342 87.8763L33.4142 87.8763L33.4142 86.7563L34.5342 86.7563ZM34.5342 88.0763L34.5342 89.1963L33.4142 89.1963L33.4142 88.0763L34.5342 88.0763ZM34.5342 93.3764L34.5342 94.4963L33.4142 94.4963L33.4142 93.3764L34.5342 93.3764ZM34.5342 94.6963L34.5342 95.8163L33.4142 95.8163L33.4142 94.6963L34.5342 94.6963ZM33.2142 86.7563L33.2142 87.8763L32.0942 87.8763L32.0942 86.7563L33.2142 86.7563ZM33.2142 88.0763L33.2142 89.1963L32.0942 89.1963L32.0942 88.0763L33.2142 88.0763ZM33.2142 93.3764L33.2142 94.4963L32.0942 94.4963L32.0942 93.3764L33.2142 93.3764ZM33.2142 94.6963L33.2142 95.8163L32.0942 95.8163L32.0942 94.6963L33.2142 94.6963ZM31.8942 88.0763L31.8942 89.1963L30.7742 89.1963L30.7742 88.0763L31.8942 88.0763ZM31.8942 89.3963L31.8942 90.5163L30.7742 90.5163L30.7742 89.3963L31.8942 89.3963ZM31.8942 90.7163L31.8942 91.8363L30.7742 91.8363L30.7742 90.7163L31.8942 90.7163ZM31.8942 92.0564L31.8942 93.1763L30.7742 93.1763L30.7742 92.0564L31.8942 92.0564ZM31.8942 93.3764L31.8942 94.4963L30.7742 94.4963L30.7742 93.3764L31.8942 93.3764ZM39.8342 88.0763L39.8342 89.1964L38.7142 89.1964L38.7142 88.0763L39.8342 88.0763ZM39.8342 89.3963L39.8342 90.5163L38.7142 90.5163L38.7142 89.3963L39.8342 89.3963ZM39.8342 90.7163L39.8342 91.8363L38.7142 91.8363L38.7142 90.7163L39.8342 90.7163ZM39.8342 92.0564L39.8342 93.1763L38.7142 93.1763L38.7142 92.0564L39.8342 92.0564ZM39.8342 93.3764L39.8342 94.4963L38.7142 94.4963L38.7142 93.3764L39.8342 93.3764ZM38.5142 86.7563L38.5142 87.8763L37.3942 87.8763L37.3942 86.7563L38.5142 86.7563ZM38.5142 88.0763L38.5142 89.1964L37.3942 89.1963L37.3942 88.0763L38.5142 88.0763ZM38.5142 93.3764L38.5142 94.4963L37.3942 94.4963L37.3942 93.3764L38.5142 93.3764ZM38.5142 94.6964L38.5142 95.8163L37.3942 95.8163L37.3942 94.6963L38.5142 94.6964ZM37.1942 86.7563L37.1942 87.8763L36.0742 87.8763L36.0742 86.7563L37.1942 86.7563ZM37.1942 88.0763L37.1942 89.1963L36.0742 89.1963L36.0742 88.0763L37.1942 88.0763ZM37.1942 93.3764L37.1942 94.4963L36.0742 94.4963L36.0742 93.3764L37.1942 93.3764ZM37.1942 94.6963L37.1942 95.8163L36.0742 95.8163L36.0742 94.6963L37.1942 94.6963ZM35.8742 86.7563L35.8742 87.8763L34.7542 87.8763L34.7542 86.7563L35.8742 86.7563ZM35.8742 88.0763L35.8742 89.1963L34.7542 89.1963L34.7542 88.0763L35.8742 88.0763ZM35.8742 93.3764L35.8742 94.4963L34.7542 94.4963L34.7542 93.3764L35.8742 93.3764ZM35.8742 94.6963L35.8742 95.8163L34.7542 95.8163L34.7542 94.6963L35.8742 94.6963Z" fill="#D3D3D3"/>
<path d="M34.5342 79.0057L34.5342 80.1257L33.4142 80.1257L33.4142 79.0057L34.5342 79.0057ZM34.5342 80.3257L34.5342 81.4457L33.4142 81.4457L33.4142 80.3257L34.5342 80.3257ZM33.2142 79.0057L33.2142 80.1257L32.0942 80.1257L32.0942 79.0057L33.2142 79.0057ZM33.2142 80.3257L33.2142 81.4457L32.0942 81.4457L32.0942 80.3257L33.2142 80.3257ZM31.8942 79.0057L31.8942 80.1257L30.7742 80.1257L30.7742 79.0057L31.8942 79.0057ZM31.8942 80.3257L31.8942 81.4457L30.7742 81.4457L30.7742 80.3257L31.8942 80.3257ZM39.8342 76.3657L39.8342 77.4857L38.7142 77.4857L38.7142 76.3657L39.8342 76.3657ZM39.8342 77.6857L39.8342 78.8057L38.7142 78.8057L38.7142 77.6857L39.8342 77.6857ZM39.8342 81.6657L39.8342 82.7857L38.7142 82.7857L38.7142 81.6657L39.8342 81.6657ZM39.8342 82.9857L39.8342 84.1057L38.7142 84.1057L38.7142 82.9857L39.8342 82.9857ZM38.5142 76.3657L38.5142 77.4857L37.3942 77.4857L37.3942 76.3657L38.5142 76.3657ZM38.5142 77.6857L38.5142 78.8057L37.3942 78.8057L37.3942 77.6857L38.5142 77.6857ZM38.5142 81.6657L38.5142 82.7857L37.3942 82.7857L37.3942 81.6657L38.5142 81.6657ZM38.5142 82.9857L38.5142 84.1057L37.3942 84.1057L37.3942 82.9857L38.5142 82.9857ZM37.1942 76.3657L37.1942 77.4857L36.0742 77.4857L36.0742 76.3657L37.1942 76.3657ZM37.1942 77.6857L37.1942 78.8057L36.0742 78.8057L36.0742 77.6857L37.1942 77.6857ZM37.1942 81.6657L37.1942 82.7857L36.0742 82.7857L36.0742 81.6657L37.1942 81.6657ZM37.1942 82.9857L37.1942 84.1057L36.0742 84.1057L36.0742 82.9857L37.1942 82.9857ZM35.8742 77.6857L35.8742 78.8057L34.7542 78.8057L34.7542 77.6857L35.8742 77.6857ZM35.8742 79.0057L35.8742 80.1257L34.7542 80.1257L34.7542 79.0057L35.8742 79.0057ZM35.8742 80.3257L35.8742 81.4457L34.7542 81.4457L34.7542 80.3257L35.8742 80.3257ZM35.8742 81.6657L35.8742 82.7857L34.7542 82.7857L34.7542 81.6657L35.8742 81.6657Z" fill="#D3D3D3"/>
<path d="M34.5342 55.5845L34.5342 56.7045L33.4142 56.7045L33.4142 55.5845L34.5342 55.5845ZM34.5342 56.9045L34.5342 58.0245L33.4142 58.0245L33.4142 56.9045L34.5342 56.9045ZM34.5342 62.2045L34.5342 63.3245L33.4142 63.3245L33.4142 62.2045L34.5342 62.2045ZM34.5342 63.5245L34.5342 64.6445L33.4142 64.6445L33.4142 63.5245L34.5342 63.5245ZM33.2142 55.5845L33.2142 56.7045L32.0942 56.7045L32.0942 55.5845L33.2142 55.5845ZM33.2142 56.9045L33.2142 58.0245L32.0942 58.0245L32.0942 56.9045L33.2142 56.9045ZM33.2142 62.2045L33.2142 63.3245L32.0942 63.3245L32.0942 62.2045L33.2142 62.2045ZM33.2142 63.5245L33.2142 64.6445L32.0942 64.6445L32.0942 63.5245L33.2142 63.5245ZM31.8942 56.9045L31.8942 58.0245L30.7742 58.0245L30.7742 56.9045L31.8942 56.9045ZM31.8942 58.2245L31.8942 59.3445L30.7742 59.3445L30.7742 58.2245L31.8942 58.2245ZM31.8942 59.5445L31.8942 60.6645L30.7742 60.6645L30.7742 59.5445L31.8942 59.5445ZM31.8942 60.8845L31.8942 62.0045L30.7742 62.0045L30.7742 60.8845L31.8942 60.8845ZM31.8942 62.2045L31.8942 63.3245L30.7742 63.3245L30.7742 62.2045L31.8942 62.2045ZM39.8342 56.9045L39.8342 58.0245L38.7142 58.0245L38.7142 56.9045L39.8342 56.9045ZM39.8342 58.2245L39.8342 59.3445L38.7142 59.3445L38.7142 58.2245L39.8342 58.2245ZM39.8342 59.5445L39.8342 60.6645L38.7142 60.6645L38.7142 59.5445L39.8342 59.5445ZM39.8342 60.8845L39.8342 62.0045L38.7142 62.0045L38.7142 60.8845L39.8342 60.8845ZM39.8342 62.2045L39.8342 63.3245L38.7142 63.3245L38.7142 62.2045L39.8342 62.2045ZM38.5142 55.5845L38.5142 56.7045L37.3942 56.7045L37.3942 55.5845L38.5142 55.5845ZM38.5142 56.9045L38.5142 58.0245L37.3942 58.0245L37.3942 56.9045L38.5142 56.9045ZM38.5142 62.2045L38.5142 63.3245L37.3942 63.3245L37.3942 62.2045L38.5142 62.2045ZM38.5142 63.5245L38.5142 64.6445L37.3942 64.6445L37.3942 63.5245L38.5142 63.5245ZM37.1942 55.5845L37.1942 56.7045L36.0742 56.7045L36.0742 55.5845L37.1942 55.5845ZM37.1942 56.9045L37.1942 58.0245L36.0742 58.0245L36.0742 56.9045L37.1942 56.9045ZM35.8742 55.5845L35.8742 56.7045L34.7542 56.7045L34.7542 55.5845L35.8742 55.5845ZM35.8742 56.9045L35.8742 58.0245L34.7542 58.0245L34.7542 56.9045L35.8742 56.9045ZM35.8742 60.8845L35.8742 62.0045L34.7542 62.0045L34.7542 60.8845L35.8742 60.8845ZM35.8742 62.2045L35.8742 63.3245L34.7542 63.3245L34.7542 62.2045L35.8742 62.2045ZM35.8742 63.5245L35.8742 64.6445L34.7542 64.6445L34.7542 63.5245L35.8742 63.5245Z" fill="#D3D3D3"/>
<path d="M34.5342 45.1938L34.5342 46.3138L33.4142 46.3138L33.4142 45.1938L34.5342 45.1938ZM34.5342 46.5138L34.5342 47.6338L33.4142 47.6338L33.4142 46.5138L34.5342 46.5138ZM34.5342 50.4938L34.5342 51.6138L33.4142 51.6138L33.4142 50.4938L34.5342 50.4938ZM34.5342 51.8138L34.5342 52.9338L33.4142 52.9338L33.4142 51.8138L34.5342 51.8138ZM34.5342 53.1338L34.5342 54.2538L33.4142 54.2538L33.4142 53.1338L34.5342 53.1338ZM33.2142 45.1938L33.2142 46.3138L32.0942 46.3138L32.0942 45.1938L33.2142 45.1938ZM33.2142 46.5138L33.2142 47.6338L32.0942 47.6338L32.0942 46.5138L33.2142 46.5138ZM33.2142 51.8138L33.2142 52.9338L32.0942 52.9338L32.0942 51.8138L33.2142 51.8138ZM33.2142 53.1338L33.2142 54.2538L32.0942 54.2538L32.0942 53.1338L33.2142 53.1338ZM31.8942 45.1938L31.8942 46.3138L30.7742 46.3138L30.7742 45.1938L31.8942 45.1938ZM31.8942 46.5138L31.8942 47.6338L30.7742 47.6338L30.7742 46.5138L31.8942 46.5138ZM31.8942 51.8138L31.8942 52.9338L30.7742 52.9338L30.7742 51.8138L31.8942 51.8138ZM31.8942 53.1338L31.8942 54.2538L30.7742 54.2538L30.7742 53.1338L31.8942 53.1338ZM39.8342 45.1938L39.8342 46.3138L38.7142 46.3138L38.7142 45.1938L39.8342 45.1938ZM39.8342 46.5138L39.8342 47.6338L38.7142 47.6338L38.7142 46.5138L39.8342 46.5138ZM39.8342 51.8138L39.8342 52.9338L38.7142 52.9338L38.7142 51.8138L39.8342 51.8138ZM39.8342 53.1338L39.8342 54.2538L38.7142 54.2538L38.7142 53.1338L39.8342 53.1338ZM38.5142 45.1938L38.5142 46.3138L37.3942 46.3138L37.3942 45.1938L38.5142 45.1938ZM38.5142 46.5138L38.5142 47.6338L37.3942 47.6338L37.3942 46.5138L38.5142 46.5138ZM38.5142 47.8338L38.5142 48.9538L37.3942 48.9538L37.3942 47.8338L38.5142 47.8338ZM38.5142 51.8138L38.5142 52.9338L37.3942 52.9338L37.3942 51.8138L38.5142 51.8138ZM38.5142 53.1338L38.5142 54.2538L37.3942 54.2538L37.3942 53.1338L38.5142 53.1338ZM37.1942 45.1938L37.1942 46.3138L36.0742 46.3138L36.0742 45.1938L37.1942 45.1938ZM37.1942 46.5138L37.1942 47.6338L36.0742 47.6338L36.0742 46.5138L37.1942 46.5138ZM37.1942 47.8338L37.1942 48.9538L36.0742 48.9538L36.0742 47.8338L37.1942 47.8338ZM37.1942 49.1538L37.1942 50.2738L36.0742 50.2738L36.0742 49.1538L37.1942 49.1538ZM37.1942 51.8138L37.1942 52.9338L36.0742 52.9338L36.0742 51.8138L37.1942 51.8138ZM37.1942 53.1338L37.1942 54.2538L36.0742 54.2538L36.0742 53.1338L37.1942 53.1338ZM35.8742 45.1938L35.8742 46.3138L34.7542 46.3138L34.7542 45.1938L35.8742 45.1938ZM35.8742 46.5138L35.8742 47.6338L34.7542 47.6338L34.7542 46.5138L35.8742 46.5138ZM35.8742 49.1538L35.8742 50.2738L34.7542 50.2738L34.7542 49.1538L35.8742 49.1538ZM35.8742 50.4938L35.8742 51.6138L34.7542 51.6138L34.7542 50.4938L35.8742 50.4938ZM35.8742 51.8138L35.8742 52.9338L34.7542 52.9338L34.7542 51.8138L35.8742 51.8138ZM35.8742 53.1338L35.8742 54.2538L34.7542 54.2538L34.7542 53.1338L35.8742 53.1338Z" fill="#D3D3D3"/>
<path d="M34.5342 34.8032L34.5342 35.9232L33.4142 35.9232L33.4142 34.8032L34.5342 34.8032ZM34.5342 36.1232L34.5342 37.2432L33.4142 37.2432L33.4142 36.1232L34.5342 36.1232ZM34.5342 41.4232L34.5342 42.5432L33.4142 42.5432L33.4142 41.4232L34.5342 41.4232ZM34.5342 42.7432L34.5342 43.8632L33.4142 43.8632L33.4142 42.7432L34.5342 42.7432ZM33.2142 34.8032L33.2142 35.9232L32.0942 35.9232L32.0942 34.8032L33.2142 34.8032ZM33.2142 36.1232L33.2142 37.2432L32.0942 37.2432L32.0942 36.1232L33.2142 36.1232ZM33.2142 41.4232L33.2142 42.5432L32.0942 42.5432L32.0942 41.4232L33.2142 41.4232ZM33.2142 42.7432L33.2142 43.8632L32.0942 43.8632L32.0942 42.7432L33.2142 42.7432ZM31.8942 36.1232L31.8942 37.2432L30.7742 37.2432L30.7742 36.1232L31.8942 36.1232ZM31.8942 37.4432L31.8942 38.5632L30.7742 38.5632L30.7742 37.4432L31.8942 37.4432ZM31.8942 38.7632L31.8942 39.8832L30.7742 39.8832L30.7742 38.7632L31.8942 38.7632ZM31.8942 40.1032L31.8942 41.2232L30.7742 41.2232L30.7742 40.1032L31.8942 40.1032ZM31.8942 41.4232L31.8942 42.5432L30.7742 42.5432L30.7742 41.4232L31.8942 41.4232ZM39.8342 36.1232L39.8342 37.2432L38.7142 37.2432L38.7142 36.1232L39.8342 36.1232ZM39.8342 37.4432L39.8342 38.5632L38.7142 38.5632L38.7142 37.4432L39.8342 37.4432ZM39.8342 38.7632L39.8342 39.8832L38.7142 39.8832L38.7142 38.7632L39.8342 38.7632ZM39.8342 40.1032L39.8342 41.2232L38.7142 41.2232L38.7142 40.1032L39.8342 40.1032ZM39.8342 41.4232L39.8342 42.5432L38.7142 42.5432L38.7142 41.4232L39.8342 41.4232ZM38.5142 34.8032L38.5142 35.9232L37.3942 35.9232L37.3942 34.8032L38.5142 34.8032ZM38.5142 36.1232L38.5142 37.2432L37.3942 37.2432L37.3942 36.1232L38.5142 36.1232ZM38.5142 41.4232L38.5142 42.5432L37.3942 42.5432L37.3942 41.4232L38.5142 41.4232ZM38.5142 42.7432L38.5142 43.8632L37.3942 43.8632L37.3942 42.7432L38.5142 42.7432ZM37.1942 34.8032L37.1942 35.9232L36.0742 35.9232L36.0742 34.8032L37.1942 34.8032ZM37.1942 36.1232L37.1942 37.2432L36.0742 37.2432L36.0742 36.1232L37.1942 36.1232ZM37.1942 41.4232L37.1942 42.5432L36.0742 42.5432L36.0742 41.4232L37.1942 41.4232ZM37.1942 42.7432L37.1942 43.8632L36.0742 43.8632L36.0742 42.7432L37.1942 42.7432ZM35.8742 34.8032L35.8742 35.9232L34.7542 35.9232L34.7542 34.8032L35.8742 34.8032ZM35.8742 36.1232L35.8742 37.2432L34.7542 37.2432L34.7542 36.1232L35.8742 36.1232ZM35.8742 41.4232L35.8742 42.5432L34.7542 42.5432L34.7542 41.4232L35.8742 41.4232ZM35.8742 42.7432L35.8742 43.8632L34.7542 43.8632L34.7542 42.7432L35.8742 42.7432Z" fill="#D3D3D3"/>
<path d="M34.5342 24.4126L34.5342 25.5326L33.4142 25.5326L33.4142 24.4126L34.5342 24.4126ZM34.5342 25.7326L34.5342 26.8526L33.4142 26.8526L33.4142 25.7326L34.5342 25.7326ZM34.5342 31.0326L34.5342 32.1526L33.4142 32.1526L33.4142 31.0326L34.5342 31.0326ZM34.5342 32.3526L34.5342 33.4726L33.4142 33.4726L33.4142 32.3526L34.5342 32.3526ZM33.2142 24.4126L33.2142 25.5326L32.0942 25.5326L32.0942 24.4126L33.2142 24.4126ZM33.2142 25.7326L33.2142 26.8526L32.0942 26.8526L32.0942 25.7326L33.2142 25.7326ZM33.2142 31.0326L33.2142 32.1526L32.0942 32.1526L32.0942 31.0326L33.2142 31.0326ZM33.2142 32.3526L33.2142 33.4726L32.0942 33.4726L32.0942 32.3526L33.2142 32.3526ZM31.8942 24.4126L31.8942 25.5326L30.7742 25.5326L30.7742 24.4126L31.8942 24.4126ZM31.8942 25.7326L31.8942 26.8526L30.7742 26.8526L30.7742 25.7326L31.8942 25.7326ZM31.8942 31.0326L31.8942 32.1526L30.7742 32.1526L30.7742 31.0326L31.8942 31.0326ZM31.8942 32.3526L31.8942 33.4726L30.7742 33.4726L30.7742 32.3526L31.8942 32.3526ZM39.8342 24.4126L39.8342 25.5326L38.7142 25.5326L38.7142 24.4126L39.8342 24.4126ZM39.8342 25.7326L39.8342 26.8526L38.7142 26.8526L38.7142 25.7326L39.8342 25.7326ZM39.8342 31.0326L39.8342 32.1526L38.7142 32.1526L38.7142 31.0326L39.8342 31.0326ZM39.8342 32.3526L39.8342 33.4726L38.7142 33.4726L38.7142 32.3526L39.8342 32.3526ZM38.5142 24.4126L38.5142 25.5326L37.3942 25.5326L37.3942 24.4126L38.5142 24.4126ZM38.5142 25.7326L38.5142 26.8526L37.3942 26.8526L37.3942 25.7326L38.5142 25.7326ZM38.5142 31.0326L38.5142 32.1526L37.3942 32.1526L37.3942 31.0326L38.5142 31.0326ZM38.5142 32.3526L38.5142 33.4726L37.3942 33.4726L37.3942 32.3526L38.5142 32.3526ZM37.1942 24.4126L37.1942 25.5326L36.0742 25.5326L36.0742 24.4126L37.1942 24.4126ZM37.1942 25.7326L37.1942 26.8526L36.0742 26.8526L36.0742 25.7326L37.1942 25.7326ZM37.1942 31.0326L37.1942 32.1526L36.0742 32.1526L36.0742 31.0326L37.1942 31.0326ZM37.1942 32.3526L37.1942 33.4726L36.0742 33.4726L36.0742 32.3526L37.1942 32.3526ZM35.8742 24.4126L35.8742 25.5326L34.7542 25.5326L34.7542 24.4126L35.8742 24.4126ZM35.8742 25.7326L35.8742 26.8526L34.7542 26.8526L34.7542 25.7326L35.8742 25.7326ZM35.8742 27.0526L35.8742 28.1726L34.7542 28.1726L34.7542 27.0526L35.8742 27.0526ZM35.8742 28.3726L35.8742 29.4926L34.7542 29.4926L34.7542 28.3726L35.8742 28.3726ZM35.8742 29.7126L35.8742 30.8326L34.7542 30.8326L34.7542 29.7126L35.8742 29.7126ZM35.8742 31.0326L35.8742 32.1526L34.7542 32.1526L34.7542 31.0326L35.8742 31.0326ZM35.8742 32.3526L35.8742 33.4726L34.7542 33.4726L34.7542 32.3526L35.8742 32.3526Z" fill="#D3D3D3"/>
</svg>
